<!-- <?xml version="1.0" encoding="UTF-8"?>
<!DOCTYPE svg PUBLIC "-//W3C//DTD SVG 1.1//EN" "http://www.w3.org/Graphics/SVG/1.1/DTD/svg11.dtd"> -->
<!-- Creator: CorelDRAW 2021 (64-Bit) -->
<svg id= "producto" xmlns="http://www.w3.org/2000/svg" xml:space="preserve" width="2352px" height="1265px" version="1.1" style="shape-rendering:geometricPrecision; text-rendering:geometricPrecision; image-rendering:optimizeQuality; fill-rule:evenodd; clip-rule:evenodd"
viewBox="0 0 2323.15 1248.84"
 xmlns:xlink="http://www.w3.org/1999/xlink"
 xmlns:xodm="http://www.corel.com/coreldraw/odm/2003">
 <defs>
  <style type="text/css">
   <![CDATA[
    .fil0 {fill:#2B2A2A}
   ]]>
  </style>
 </defs>
 <g id="Capa_x0020_1">
  <metadata id="CorelCorpID_0Corel-Layer"/>
  <g id="_2315674697648">
   <path class="fil0" d="M54.73 553.49c4.65,-2.49 11.28,-3.45 17.16,-5.08 6.22,-1.73 13.96,-1.83 18.97,-3.47 7.33,-2.4 1.34,-3.32 17.81,-4.48 9.4,-0.66 8.49,-3.07 17.03,-3.83 9.25,-0.83 11.01,-0.82 19.29,-3.19 7.25,-2.07 11.5,-1.19 18.35,-2.64 6.26,-1.31 10.43,-3.76 17.84,-4.38 11.5,-0.96 8.54,-0.95 17,-4.23 6.25,-2.43 12.47,0.09 19.62,-2.76 9.54,-3.81 6.8,-2.63 18.23,-3.8 7.18,-0.74 10.63,-3.71 17.79,-4.61 8.43,-1.05 9.84,0.13 18.44,-2.79 6.83,-2.32 11.96,-2.8 18.97,-3.41 8.29,-0.72 10.17,-3.3 17.02,-4.21 8.87,-1.19 11.34,0.79 19.63,-2.48 7.34,-2.9 9.42,-2.96 17.19,-1.17 2.87,11.42 1,5.22 4.89,13.44 2.9,6.13 -0.79,2.37 5.31,13.15 4.48,7.93 6.61,17.41 9.95,25.64 2.36,5.82 1.07,9.49 3.2,15.03 2.73,7.11 2.77,4.91 3.51,14.04 0.65,8 2.55,7.57 4.03,13.84 1.29,5.5 0.55,10.47 2.66,14.58 4.23,8.24 4,0.68 4.46,13.75 0.19,5.4 0.69,11.36 1.95,15.23 3.65,11.26 1.98,20.01 3.69,31.89 3.25,22.53 2.43,4.77 3.13,31.78 0.76,29.06 4.01,93.62 -1.54,118.88 -2.21,6.54 -2.14,5.27 -2.92,12.59 -0.88,8.28 -5.23,17.33 -8.86,22.87 -1.84,2.83 -3.72,7.91 -5.11,10.65 -2.19,4.33 -2.41,6.33 -5.29,10.57l-11.77 19.72c-2.65,4.01 -4.24,5.06 -7.11,8.68 -6.52,8.25 -8.05,11.28 -19.63,12.05 -18.69,1.24 -35.13,6.21 -56.82,6.47 -21.28,0.19 -78.91,1.45 -97.15,0.75l-75.25 -3.46c-8.85,-4.92 -13.92,-2.97 -23.09,-8.46 -4.67,-2.8 -14.35,-8.37 -17.85,-12.36 -15.73,-17.92 -30.55,-60.42 -30.55,-91.19 0,-37.15 -0.38,-30.78 3.08,-65.76l22.74 -187.84zm1074.13 155.04c0,-9.33 3.24,-56.08 5.09,-62.5 6.55,-22.71 2.27,-14.29 5.02,-27.89l6.93 -26c3.73,-11.14 9.4,-36.86 15.11,-50.4 3.66,-8.69 7.25,-24.22 7.61,-25.15 1.88,-4.95 3.03,-5.28 5.13,-12.21 1.44,-4.74 3.33,-7.47 5.23,-10.39l10.94 1.68c19.44,1.96 8.54,3.93 26.25,4.69l36.7 7.24c8.01,3.2 10.13,2.2 19.12,3.4 7.5,1 9.7,3.68 16.45,4.55 9.59,1.23 8.92,-0.82 17.75,3.05 8.26,3.63 10.44,1.28 18.5,2.8 5.89,1.11 8.02,3.67 17.49,4.71 10.7,1.18 47.73,9.56 53.98,9.86 9.68,0.46 11.68,3.21 18.54,4.19 6.99,0.99 11.54,0.03 18.47,2.62 11.75,4.4 21.44,2.79 33,8.74 2.8,20.03 4.13,35.34 8.04,53.94 0.96,4.56 0.87,9.69 1.6,14.39 0.91,5.78 2.17,6.62 3.73,11.83 2.56,8.61 1.81,17.73 3.13,27.24 0.73,5.18 1.98,8.64 2.71,13.01 0.87,5.18 0.3,9.99 0.64,15.24 1.59,24.24 7.97,47.05 8.75,81.73 0.24,10.3 0.17,21.37 0.02,31.68l-4.91 41.32c-2.98,11.94 -6.24,21.97 -13.3,32.48 -11.48,17.11 -19.56,34.43 -50.32,41.56 -10.32,2.4 -9.35,5.87 -24.83,5.87l-107.74 0c-34.18,-1.95 -39.98,-6.46 -86.72,-6.64 -23.41,-0.08 -22.78,0.08 -34.56,-13.03 -7.19,-7.99 -11.7,-17.07 -16.96,-29.07 -4.66,-10.62 -9.75,-22.79 -12.96,-34.35l-9.53 -36.37c-3.57,-29.16 -4.1,-63.79 -4.1,-93.82zm-376.14 -89.03c9.79,-2.06 16.64,-3.98 18.92,6.52 1.05,4.88 0.85,23.62 0.2,28.34 -0.37,2.68 -1.93,8.75 -2.66,12.05 -1.22,5.5 -11.2,22.64 -19.44,24.29 -12.34,-18.95 -10.07,-10.94 -9.77,-37.39 0.15,-12.58 7.03,-23.56 12.75,-33.81zm-313.45 131.08c0,-20.66 8.01,-81.15 11.37,-105.9 0.83,-6.13 0.66,-12.59 1.24,-18.83 0.5,-5.33 2.23,-9.63 2.9,-14.87 0.78,-6.05 0.55,-12.66 1.86,-17.98 1.64,-6.65 2.96,-7.92 3.98,-15.92 0.99,-7.8 3.19,-7.81 5.12,-14.51 4.31,-15.02 0.91,-26.6 11.93,-26.4 6.72,0.12 10.49,2.14 16.65,3.43 11.88,2.51 20.48,-0.24 33.68,4.4 8.3,2.92 55.18,7.24 67.77,9.6 21.57,4.05 17.91,2.07 34.75,4.46 6.52,0.93 10.24,2.66 16.76,2.99l101.11 14.8c7.02,1.25 47.51,4.14 50.15,7.83l8.6 31.96c7.56,23.96 23.97,77.68 16.99,100.33l-9.52 0.77c-4.94,2.22 0.56,20.9 -18.89,19.77l-9.67 -11.68c-5.38,-9.37 -5.43,-27.65 -4.59,-37.33l5.27 -32.52c0.5,-1.85 8.88,-19.83 7.04,-28.46 -1.24,-5.77 -2.78,-17.53 -5.93,-19.2l-27.78 -5.14c-16.2,-1.4 -26.46,23.3 -30.29,35.1 -2.52,7.74 -7.61,24.4 -6.08,33.14l11.8 32.65c3.92,3.44 12.05,4.26 17.81,3.21 3.92,-0.71 8.96,-4.36 11.32,-4.92l2.62 0.12c2.83,14.74 1.43,11.31 6.05,24.1 1.92,5.32 1.07,11.35 9.37,19.67 12,12.02 27.66,2.04 39.98,-3.19 -3.3,16.57 -13.75,77.82 -21.23,93.03 -2.29,4.65 -4.46,11.25 -6.34,16.01 -4.75,12.01 -15.82,34.08 -26.47,41.89 -18.4,13.5 -20.94,12.11 -32.37,18.87 -9.04,5.35 -5.23,1.96 -11.03,4.73 -1.99,0.94 -4.7,3.46 -7.57,4.39 -4.32,1.41 -6.28,0.43 -10.59,1.27 -7.83,1.54 -6.64,3.89 -17.69,4.03 -14.93,0.18 -27.5,2.98 -42.06,2.96 -13.97,-0.01 -76.87,-1.36 -86.12,-4.48 -14.03,-4.73 -14.52,-2.62 -19.42,-4.4 -2.75,-1.01 -4.46,-2.87 -7.6,-4.11 -15.99,-6.35 -21.86,-5.88 -34.86,-20.34l-11.01 -12.62c-8.13,-10.51 -11.43,-11.57 -19.59,-25.11 -1.96,-3.24 -2.22,-5.22 -4,-7.82 -1.99,-2.89 -2.5,-2.63 -4.5,-5.98 -8.19,-13.73 -9.14,-15.49 -14.31,-31.66 -7.51,-23.46 -6.61,-38.59 -6.61,-62.14zm37.02 -226.89c0.56,-5.26 2.29,-6.5 3.43,-11.58 1.88,-8.45 8.3,-20.6 12.58,-29.5l9.64 -19.33c2.82,-5.76 6.91,-11.93 10.7,-16.84 12,-15.55 20.95,-7.54 38.42,-1.76 13.99,4.63 27.9,9.08 42.03,14.44 27.1,10.27 69.19,16.11 97.52,16.02 14.6,-0.04 41.86,-1.41 54.48,1.66 13.81,3.35 21.29,21.67 26.93,29.38 4.23,5.8 14.9,31.99 17.18,39.28 1.46,4.7 3.46,4.89 4.54,9.8 3.65,16.59 -1,15.24 -23.14,12.06 -8.99,-1.29 -13.41,-2.74 -24.6,-3.49l-74.51 -9.79c-8.5,-1.18 -14.98,-3.81 -24.17,-4.75 -8.55,-0.87 -15.92,-0.85 -24.18,-3.22 -9.84,-2.83 -17.41,-0.95 -26.12,-2.79 -8.86,-1.86 -12.27,-4.36 -23.32,-4.46 -13.18,-0.11 -13.91,-2.3 -24.88,-3.81 -7.96,-1.09 -17.16,-0.98 -24.83,-2.73 -17.11,-3.91 -31.04,-2.7 -47.7,-8.59zm585.67 -195.78c2.05,5.82 3.15,14.9 4.85,21.42 4.25,16.25 8.98,46.1 12.67,63.54 2.06,9.78 3.83,10.23 4.23,22.29 0.28,8.44 2.61,13.81 3.57,21.19 2.01,15.34 3.54,30.85 4.82,46.59 1.89,23.36 1.61,77.45 -1.36,99.94l-8.54 68.99c-2.23,8.5 -9.44,60 -9.64,66.92 -0.21,7.58 -0.8,16.6 -1.51,24.77 -1.04,11.99 -4.85,4.52 -0.48,18.24 2.57,8.07 1.74,14.81 3.09,23.29 1.28,8.08 4.07,12.57 4.84,20.32 0.98,9.77 1.33,13.03 3.86,22.08 2.08,7.44 1.13,15.16 2.64,22.39 3.56,17.02 9.3,26.53 -3.36,37.9 -11.85,10.66 -24.96,7.33 -44.16,7.37 -18.32,0.04 -31.07,-2.22 -47.35,-3.79 -7.03,-0.68 -18.47,-1.27 -24.59,-1.03 -10.87,0.41 -10.54,0.53 -17.2,-6.23 -5.17,-5.25 -7.5,-6.63 -12.82,-13.43 -6.49,-8.27 -9.62,-16.94 -12.87,-25.12l-11.2 -27.02c-4.62,-7.89 -2.06,-11.76 -6.11,-20.13 -2.34,-4.83 -1.8,-5.49 -2.42,-11.1 -0.61,-5.56 -1.01,-4.34 -2.68,-8.88 -2.25,-6.16 -1.99,-15.67 -3.87,-22.29 -4.47,-15.78 -2.87,-24.4 -6.83,-44.44 -1.5,-7.58 -3.08,-66.63 -2.91,-73.04 2.28,-86.58 -2.79,-220.77 3.68,-298.43 0.78,-9.37 8.08,-7.45 16.63,-9.6l43.9 -7.34c8.79,-1.03 12.88,-1.7 21.38,-3.53 7.27,-1.56 15.93,-1.6 23.66,-2.81 14.45,-2.28 56.34,-10.91 66.08,-9.03zm-728.6 154.59c-5.21,5.98 -15.64,4.8 -24.86,6.69 -8.69,1.79 -15.11,3.61 -25.17,5.17 -5.77,0.91 -6.81,2.8 -12.02,3.84 -4.42,0.88 -9.46,0.73 -13.2,1.19 -6.22,0.77 -7.04,2.17 -12.44,3.32 -4.46,0.95 -8.67,0.15 -13.45,0.95 -5.15,0.87 -6.54,3.05 -12.06,3.81 -5.56,0.77 -8.68,0.16 -14.1,1.52 -9.74,2.44 -14.1,3.5 -25,5.37 -12.07,2.07 0.84,2.93 -25.14,5.24 -6.13,0.54 -6.82,2.38 -11.76,3.71 -4.16,1.11 -8.25,0.47 -13.2,1.14 -11.33,1.54 -2.85,2.77 -26.3,5.06 -33.63,3.27 -52.33,22.62 -42.51,-10.61 1.49,-5.04 1.23,-7.12 2.37,-12.26 1.95,-8.73 20.95,-53.37 30.02,-61.84 7.4,-6.91 11.73,-11.15 19.28,-11.15 14.51,0 50.07,6.86 65.95,9.01 29.1,3.93 69.55,9.51 98.59,14.62 14.16,2.5 13.62,-1.51 39.36,9.19 7.04,2.93 15.19,8.06 15.64,16.03zm854.4 -0.49c-0.35,-7.31 7.17,-11.07 12.12,-14.47 6.1,-4.19 11.67,-5.91 19.73,-7.97 17.18,-4.39 25.3,-6.2 45.18,-8.49 31.56,-3.62 64.73,-7.92 96.4,-12.79 35.66,-5.48 46.36,-13.91 65.89,5.45l10.96 15.27c10.44,16.84 8.03,12.78 13.25,27.48 1.62,4.56 2.53,3.28 4.38,8.86 1.31,3.99 5.51,18.09 5.67,21.44 0.88,18.73 7.02,7.8 3.6,21.25l-34.35 -5.81c-9.12,-3.21 -8.43,-2.06 -18.12,-3.22 -5.71,-0.69 -10.87,-3.35 -16.45,-4.28 -8,-1.33 -10.85,0.22 -18.3,-2.8 -7.57,-3.08 -9.24,-2.1 -18.21,-3.06 -7.99,-0.86 -7.44,-3.72 -15.86,-5.02 -6.54,-1.01 -11.76,-0.95 -17.82,-3.05l-34.76 -7.39c-10.54,-0.89 -9.01,-0.82 -17.63,-3.14 -7.08,-1.9 -12.56,-0.49 -18.86,-2.25 -3.9,-1.08 -3.06,-1.94 -7.4,-3.15 -2.81,-0.78 -6.38,-0.87 -9.01,-1.16l-50.41 -11.7zm36.29 -215.71c3.01,1.8 9.23,13.66 35.54,14.76 15.41,0.65 31.51,-1.3 46.51,-3.19 7.74,-0.98 16.04,0.28 23.72,-1.03 9.23,-1.57 8.68,-4.37 20.38,-4.63 14.39,-0.32 8.94,-4.16 18.97,-5.73 26.31,-4.11 39.41,-11.26 55.2,11.67 3.92,5.7 10.39,31.4 10.43,40.07 0.07,16.4 1.47,32.1 0.64,48.59 -0.49,9.56 -0.22,13.24 -4.21,20.69 -6.09,11.37 -20.2,21.2 -31.03,26.75 -29.13,14.93 -74.41,11.99 -106.51,11.99 -31.6,0 -20.93,2.51 -44.9,-5.33 -6.76,-2.21 -10.94,-6.73 -14.63,-11.57l-9.68 -15.33c-18.49,-31.82 -9.85,-76.96 -6.33,-109.29 0.85,-7.82 -0.25,-16.64 5.9,-18.42zm-923.39 2.27c9.72,23.85 12.13,85.08 3.82,111.63 -5.18,16.51 -1.78,9.82 -7.47,17.45 -10.6,14.2 -1.68,12.26 -24.31,25.61 -17.36,10.25 -107.18,6.85 -137.61,-2.69 -16.12,-5.05 -20.81,-7.02 -31.25,-18.76 -6.94,-7.81 -5.08,-1.88 -12.98,-13.31 -6.11,-8.84 -6.64,-4.4 -6.48,-19 0.08,-8.35 0.06,-16.65 0.05,-25 -0.02,-11.61 2.35,-12.61 3.73,-22 1.05,-7.1 -0.07,-16.74 1.42,-23.2 1.1,-4.78 4.77,-15.3 6.76,-18.27 7.36,-10.99 16.23,-16.56 34.56,-15.38 25.53,1.63 47.08,11.59 61.72,11.7 9.28,0.07 13.44,1.51 21.82,3.17 14.17,2.8 34.07,1.22 49.16,1.29 25.82,0.11 27.36,-10.41 37.06,-13.24zm604.12 72.49c-14.21,0 -3,-22.05 -2.02,-27.25 1.96,-10.41 -1.99,-1.91 4.65,-13.94 6.95,-12.6 8.01,-19.36 19.34,-24.05l39.94 -9.66c6.55,-0.95 5.04,-1.53 10.14,-3.34l30.43 -6.21c9.06,0 20.21,9.87 26.54,16.68 0.87,0.94 3.87,4.3 5.5,6.31 3.64,4.48 6.26,10.77 10.13,16.19 3.62,5.06 5.97,11.39 4.62,19.49l-111.16 19.94c-11.95,0.94 -23.18,5.84 -38.11,5.84zm-211.48 -59.29c-2.52,3.46 -25.53,11.11 -30.29,11.71 -13.08,1.65 -25.02,0.99 -37.35,-2.27 -4.71,-1.24 -13.59,-1.57 -17.82,-3.11 -4.79,-1.75 -1.78,-1.97 -7.09,-3.51 -9.36,-2.7 -12.89,-3.5 -22.44,-9.13 -3.84,-2.26 -8.7,-5.44 -11.34,-8.27 -6.6,-7.07 -9.73,-21.9 -2.04,-31.3 18.27,-22.32 98.23,-16.6 104.82,-13.74 10.42,4.53 16.53,2.81 30.66,11.36 9.85,5.95 14.73,7.52 25.34,15.38 5.48,4.05 16.83,15.73 20.92,21.18 9.21,12.28 14.48,17.17 16.97,33.9 1.29,8.73 5.76,9.92 4.1,26.77 -1.32,13.46 -3.98,22.34 -4.8,36.14 -0.45,7.58 -3.16,9.15 -4.1,17.09 -2.06,17.38 -12.43,27.35 -23.55,38.07 -4.37,4.2 -17.1,15.3 -23.7,18.39 -16.55,7.74 -56.77,3.11 -75.58,-0.51 -28.73,-5.52 -43.88,-14.02 -64.07,-18.75 -37.71,-8.84 -48.93,-34.55 -49.02,-74.03 -0.04,-19.38 5.06,-52.96 28.37,-54.23 9.33,-0.51 28.34,3.81 35.48,6.98 5.28,2.34 9.87,2.51 16.16,4.84 47.47,17.54 73.31,7.88 113.46,-11.91 5.16,-2.55 2.51,-1.23 6.43,-4.17 3.24,-2.42 3.58,-1.82 6.63,-3.88l10.68 -8.77 -2.05 -10.41 -13.53 2.44c-8.78,3.31 -20.67,11.8 -31.25,13.74zm-470.43 -9.6c-5.07,0 -18.78,-1.36 -24.12,-1.98 -21.5,-2.54 -5.43,0.37 -21.94,-4.45 -8.93,-2.6 -12.67,-0.2 -21.86,-4.41 -5.06,-2.31 -5.68,-0.92 -10.64,-2.32 -3,-0.85 -4.51,-2.27 -8.22,-3.81 -41,-16.98 19.64,-39.34 36.85,-39.34l31.53 0 27.59 5.22c4.32,1.48 0.09,1.17 12.17,4.88 15.12,4.65 39.62,17.04 47.92,32.72l-30.85 8.64c-7.25,3.38 -29.81,4.85 -38.43,4.85zm1094.36 -56.35c26.23,-2.96 34.13,-1.45 60.55,4.75 2.42,0.57 13.4,6.14 15.22,7.53 5.03,3.82 7.24,6.94 7.21,15.31 -13.12,8.39 -19.62,12.92 -34.66,16.66 -4.41,1.1 -5.24,2.48 -9.57,3.43 -3.66,0.81 -6.92,0.39 -10.96,0.98 -8.52,1.26 -8.5,5.46 -19.8,5.46l-34.16 0c-10.43,-0.94 -52.85,-10.6 -60.4,-11.11l12.76 -17.15c5.63,-6.13 31.38,-17 39.28,-19.78 4.26,-1.5 6.34,-0.46 11.63,-2.82 6.71,-2.99 4.32,-2.54 12.65,-2.2 -2.97,1.77 -6.02,4.48 -6.17,8.37 -0.26,6.83 7.12,5.43 15.21,5.43 8.18,-13.13 4.09,-7.47 1.21,-14.86zm-380.92 18.56c-7.78,0 -15.36,-4.28 -21.75,-7.43 -13.06,-6.42 -17.43,-15.69 -22.82,-25.93 -7.42,-14.08 -2.45,-7.81 -5.81,-15.13l-7.32 -20.13 -7.03 -33.78c-1.47,-13.05 -4.36,-29.27 2.06,-35.41 3.85,-3.69 3.78,-2.87 10.01,-3 16.83,-0.37 40.64,0.75 56.39,-0.69 1.81,-0.16 16.57,-5.81 19.28,-7.88 22.72,-17.39 22.8,-15.25 30.53,-0.36 2.77,5.34 2.07,5.11 3.39,11.24 1.2,5.62 2.31,4.86 3.81,9.09 1.89,5.3 3.04,16.74 4.6,23.09 2.22,9.01 3.76,49.88 2.77,54.82l-16.21 37.45c-11.76,10.36 -19.8,14.05 -40.08,14.05l-11.82 0zm-49.67 -164.72c-1.8,-15.18 12.56,-17.07 22.04,-20.85 4.41,-1.75 7.1,-1.68 12.17,-2.39 16.85,-2.34 31.36,-9.68 48.51,-3.14l-10.54 18.91c-9.07,10.95 -48.99,21.75 -72.18,7.47zm-20.74 117.15c0.16,5.52 14.06,48.21 14.91,56.55 0.64,6.34 3.11,10.02 2.48,15.31 -0.39,3.25 -2.14,10.89 -2.98,15.4 -1.08,5.75 -3.2,9.14 -4.53,13.9 -1.42,5.07 -0.85,10.84 -1.54,17 -5.26,46.61 -3.89,90.16 -3.89,139.42 0,46.93 -2.46,100.55 -2.23,144.55 0.2,35.78 -1.6,70.08 -5.94,104.89 -1.23,9.93 0.85,23.68 -2.29,32.63l-18.42 -75.47c-2.83,-12.97 -4.77,-26.22 -8.1,-39.29l-8.57 -38.52c-1.27,-4.64 -2.06,-3.8 -3.1,-9.16 -1.94,-10.03 -0.83,-14.12 -6.52,-28.72 -4.21,-10.81 -8.46,-23.73 -12.7,-34.55 -6.64,-16.93 -4.92,-13.39 -16.4,-30.93 -3.31,-5.06 -6.31,-10.41 -8.79,-14.89 -5.66,-10.23 -7.51,-9.46 -3.68,-16.79l11.44 -24.08c6.11,-15.03 6.04,-37.6 6.04,-53.77 0,-43.4 -0.37,-31.14 -5.3,-66.52 -1.32,-9.49 -7.17,-19.8 -9.36,-25.92 -3.13,-8.72 -2.63,-7.86 -8.71,-14.92 -7.67,-8.92 -11.11,-21.73 -37.86,-33.03l-26.59 -8.92c-17.24,-7.25 -27.85,-7.27 -36.35,-9.57 -25.65,-6.95 -76.77,-8.56 -102.83,7.36 -20.44,12.5 -26.12,13.96 -35.96,34.95l-7.49 16.16c-1.1,3.63 -0.17,5.89 -1.99,9.96 -2.09,4.69 -2.56,0.94 -4.09,7.76 -1.68,7.46 -3.99,13.33 -5.02,18.6 -6.83,34.85 -3.69,36.8 -5.5,65.4 -1.74,27.37 4.59,29.23 4.55,40.97 -0.05,13.8 -28.18,27.67 -38.99,66.55l-10.62 24.79c-2.02,5.27 -8.28,31.36 -9.57,37.89 -4.32,21.94 -10.31,65.2 -14.01,80.44 -3.52,14.54 -10.67,70.73 -15.89,77.18l-17.25 -76.25c-3.79,-8.79 -14.9,-76.99 -18.42,-86.7 -1.3,-3.58 -2.56,-3.77 -3.58,-8.34 -1.01,-4.57 0.13,-5.99 -1.43,-10.12 -1.21,-3.22 -3.11,-3.74 -4.3,-7.59 -3.61,-11.61 -5.51,-14.47 -9.94,-25.66 -1.96,-4.95 -10.37,-19.26 -12.87,-22.6 -26.53,-35.55 -26.39,-24.99 -23.06,-66.14 0.63,-7.77 0.06,-15.03 0.9,-23.03 1.31,-12.54 0.5,-30.9 -0.09,-44.76 -1.79,-42.59 -10.32,-58.48 -31.26,-85.87 -3.78,-4.95 -31.16,-20.99 -35.87,-23.22 -20.08,-9.5 -54.6,-25.01 -81.52,-21.12 -15.03,1.37 -24.98,0.94 -39.09,4.34 -9.58,2.31 -23.97,6.95 -31.63,11.82 -3.61,2.3 -20.13,17.68 -22.38,20.98 -4.78,7.01 -10.43,21.37 -13.63,29.73 -7.19,18.85 -9.92,103.96 -3.87,120.05 3.21,8.54 5.59,27.38 6.78,36.83 -7.05,5.25 -9.86,7.29 -16.64,14.62 -3.29,3.56 -9.34,13.73 -11.86,19.65 -12.06,28.45 -8.17,25.71 -11.76,35.55 -1.88,5.16 -3.55,6.12 -4.77,12.49 -13.83,72.26 -4.25,174.94 -16.37,238.47 -5.76,30.25 -15.63,79 -15.6,111.29 0.02,18.94 2.18,52.47 13.08,65.32 3.7,4.36 3.48,4.6 6.34,9.43 2.3,3.89 4.3,6.49 6.54,9.26 2.57,3.18 0.93,1.35 3.83,4 1.74,1.59 2.84,2.73 4.95,4.28 16.2,11.94 22.75,14.25 47.41,16.08 19.93,1.47 39.83,-0.75 59.88,-2.65 39.75,-3.77 86.57,0.07 126.82,-0.3 21.34,-0.19 42.39,-1.23 63.14,-1.48 9.35,-0.12 18.98,-2.32 28.83,-2.87l31.32 -1.57 5.02 -7.89c14.36,-21.81 6.83,-2.97 17.43,-41.63 3.19,-0.37 10.37,12.72 17.55,19.37 7.13,6.61 13.69,11.76 22.6,16.8 2.89,1.64 3.09,1.16 6.57,2.66 4.97,2.15 2.1,1.88 6.3,4.14 3.18,1.7 3.3,0.81 6.76,2.35 4.54,2 2.39,2.4 6.67,3.87 1.58,0.55 42.57,2.08 56.94,3.9 14.5,1.84 42.54,0.96 57.16,2.97 30.27,4.16 129.46,7.51 152.87,4.14 25.82,-3.72 35.23,-12.03 53.66,-26.66 13.08,-10.38 17.83,-23.01 26.27,-32.87 4.98,-5.82 7.5,-13.07 10.24,-19.94 2.69,-6.76 12.77,-27.53 14.9,-35.08 1.12,-4 0.86,-4.95 2.6,-8.02 1.83,-3.22 2.58,-3.01 4.97,-3.76 0.23,0.74 6.2,42.96 7.97,49.69 2.7,10.23 2.19,12.7 6.71,22.3 2.14,4.57 2.63,4.11 4.7,9.62 2.66,7.05 2.9,3.98 5.46,9.16 10.35,20.96 4.54,27.56 31.57,24.37 52.28,-6.19 142.86,3.97 163.38,0.29 3.87,-0.69 5.64,-2.87 9.57,-4.67 6.89,-3.14 4.47,-0.48 7.96,-6.44 18.77,-32.12 15.72,-24.64 15.71,-68.66 3.82,2.67 9.96,38.19 19.63,50.28 11.92,14.9 20.53,29.59 39.49,30.37 43.29,1.79 89.24,2.82 132.24,4.22 22.65,0.75 45.63,-0.48 68.19,1.37 52.07,4.26 38.23,2.94 81.79,-1.19 7.46,-0.71 6.81,-1.95 12.81,-3.97 9.65,-3.25 9.38,-3.49 16.42,-9.82 12.96,-11.66 19.53,-14.81 28.64,-33.13 1.44,-2.9 5.15,-10.17 5.9,-12.45 3.92,-11.85 2.32,-52.64 1.89,-67.52 -0.91,-31.67 -13.63,-87.07 -16.55,-122.18 -1.78,-21.37 -3.88,-42.13 -5.89,-64.08 -4.02,-43.83 0.33,-90.38 -6.43,-132.82 -1.25,-7.82 -4.48,-20.53 -6.77,-27.43 -2.03,-6.14 -1.08,-7.61 -3.85,-13.14 -1.78,-3.56 -4.01,-8.3 -5.9,-12.5 -3.71,-8.27 -12.99,-27.58 -19.95,-32.6l-12.14 -6.54c-1.01,-5.73 -0.34,-7.3 1.99,-12.72 0.74,-1.72 7.18,-24.53 7.64,-29.29 0.58,-5.99 1.88,-9.9 2.44,-15.81 1.07,-11.12 -1.34,-74.71 -4.97,-84.38 -3.18,-8.46 -1.71,-7.1 -3.15,-15.33l-10.66 -25.99c-8.12,-15.13 -23.78,-26.03 -39.01,-33.24 -16.05,-3.72 -20.07,-5.79 -39.41,-5.74 -18.83,0.04 -43.27,-1.31 -61.17,4.97 -6.78,2.38 -27.8,9.53 -31.43,11.84 -17.6,11.19 -27.91,13.78 -40.07,24.37 -8.19,7.13 -12.08,15.51 -16.89,26.49l-12.28 31.11c-3.78,16.21 -2.66,99.75 0.66,120.67 1.67,10.46 1.27,10.26 -4.99,15.59l-29.19 33.87c-13.25,16.84 -9.72,17.44 -13.49,29.81 -1.42,4.63 -2.12,3.25 -3.24,8.91 -0.6,3.04 -0.51,5.73 -1.62,8.64 -5.88,15.5 -22.21,76.26 -25.32,80.55 -3.09,-68.97 -5.35,-104.24 -14.74,-172.86 -2.82,-20.59 -15.61,-96.07 -19.65,-113.03 -1.03,-4.3 -2.43,-6.59 -3.24,-11.04 -3.05,-16.83 -9.18,-34.21 -15.58,-50.31 -1.89,-4.75 -2.2,-5.06 -4.36,-8.78 -3.58,-6.15 -1.88,-3.16 -5.8,-7.53l-0.9 -39.63c-0.82,-3.41 -1.81,-4.52 -2.74,-7.71 -1.08,-3.67 -0.56,-5.13 -1.32,-9l-8.19 -22.24c-3.33,-5.36 -1.37,0.3 -2.74,-7.94 -0.94,-5.59 -2.76,-8.15 -4.69,-15.09l-4.88 -14.48c-1.41,-4.41 -2.12,-3.71 -3.39,-7.31 -0.86,-2.41 -0.82,-4.4 -1.79,-7.36 -2.26,-6.92 -3.72,-4.63 -6.24,-14.84 -1.61,-6.55 -3.25,-7.84 -3.91,-16.01 -1.29,-16.13 -1.78,-19.35 -9.8,-30.74 -3.7,-5.27 -4.56,-8 -9.17,-11.81 -13.98,-11.55 -21.44,-14.29 -42.18,-15.89 -12.13,-2.04 -24.46,-0.5 -35.32,2.29 -12.78,3.3 -6.1,-1.98 -32.55,7 -7.44,2.53 -26.98,14.91 -32.61,26.55 -12.9,26.7 -7.1,54.16 -2.74,84.45 2.33,16.14 10.75,46.84 10.95,48.49 1.06,8.78 2.89,9.14 4.44,17.09z"/>
   <path class="fil0" d="M1813.19 936.39c-9.31,2.31 -17.43,3.21 -26.8,3.21 -10.91,0 -22.53,-3.84 -33.02,-4.38 -11.12,-0.57 -7.43,-2.1 -14.93,-3.95 -8.28,-2.03 -3.11,1.77 -14.73,-3.7l-13.12 -5.25c-15.7,-6 -3.18,-1.21 -12.61,-5.79 -21.37,-10.36 -27.99,-15.28 -46.57,-26.97 -8,-5.03 -14.01,-10.44 -20.99,-15.81 -3.14,-2.41 -18.21,-14.55 -19.38,-17.65 -3.13,-8.27 3.99,-3.94 7.93,-2.63l106.74 23.82c7.87,1.2 7.71,0.54 14.73,3.34 5.19,2.07 10.45,1.86 15.07,3.35 16.77,5.39 41.74,11.71 59.37,14.37l29.19 7.72c5.81,1.32 9.05,0.08 14.99,3.04 6.87,3.44 9.2,2.29 13.71,4.48 -13.98,14.1 -4.36,3.19 -17.24,9.96l-31.16 11.24c-3.86,0.89 -6.93,0.55 -11.18,1.6zm-84.79 -96.33c22.43,6.53 22.49,-14.64 23.83,-17.14 2.25,2.94 3.14,3.18 2.28,7.48 -0.35,1.76 -1.82,4.63 -2.67,6.64 -4.19,9.96 -9.75,10.99 -18.38,8.59 -5.09,-2.16 -4.37,-1.3 -5.06,-5.57zm77.7 -81.95c-14.72,0 -34.63,-10.05 -44.01,-21.34 -6.3,-7.59 -8.93,-11.52 -4.32,-22.66 3.26,-7.86 8.2,-13.04 18.11,-13.04 13.9,-4.12 75.33,32.98 39.42,57.04l-9.2 0zm308.19 10.09c1.58,-6.06 3.07,-4.37 3.85,-12.92 1.04,-11.5 -0.45,-5.65 4.38,-12.88 3.9,-5.84 1.24,-8.39 3.8,-14.51 1.4,-3.33 1.79,-1.28 2.87,-6.44 0.57,-2.68 0.21,-4.21 0.83,-7.04l24.59 -79.23c2.54,-11.07 17.02,-50.66 20.29,-67.54l10.92 -40.46c3.46,-7 6.96,-17.34 9.35,-26.26 4.86,-18.16 20.1,-64.52 27.62,-76 22.24,-34.02 31.19,10.47 31.19,12.9l0 11.83c-0.11,17.73 -2.33,68.81 -7.83,82.6 -4.2,10.51 1.64,6.27 -5.16,27.75 -1.51,4.75 -0.77,8.63 -1.95,14.04 -0.79,3.64 -3.04,7.39 -4.3,11.29 -1.83,5.67 -0.91,9.09 -2.83,14.24 -1.98,5.33 -2.7,4.38 -3.63,12.12l-5.16 26.51c-1.28,5.17 -2.93,5.29 -3.95,12.77l-6.29 25.41c-4.59,9.84 -17.09,51.67 -19.35,60.89 -3.57,14.61 -10.48,33.76 -16.4,48.04 -5.88,14.21 -11.84,31.07 -18.38,45.95 -1.97,4.5 -21.21,36.14 -30.74,32.77l-14.04 -11.32c-7.56,-10.81 -5.17,-41.44 -5.17,-54.82l5.49 -29.69zm4.59 -434.55c11.9,-3.46 32.59,3.43 43.63,7.86 10.85,4.35 22.74,13.53 30.03,22.59 18.61,23.12 8.32,61.22 1.71,87.38 -4.32,17.07 -19.32,65.56 -25.72,80.78 -5.32,12.66 -8.75,32.2 -12.59,39.94 -6.56,13.24 -13.02,36.39 -17.49,49.42 -1.25,3.65 -0.95,7.66 -1.82,11.49 -1.27,5.53 -2.42,3.95 -3.28,9.8 -0.62,4.22 -0.13,7.38 -1.49,11.44 -1.74,5.19 -12.12,19.26 -15.64,37.19 -1.13,5.79 -2.74,5.84 -3.83,10.7 -1.32,5.88 0.25,5.83 -2.08,11 -5.5,12.2 -6.75,28.55 -11.68,40.81l-9.92 44.07c-3.56,12.31 -2.14,61.34 -2.12,75.99 0.03,20.96 -0.9,19.53 -11.08,42.19 -7.12,15.87 -41.3,22.11 -59.97,16.56 -16.87,-5.02 -3.21,0.47 -19.01,-7.45 -12.56,-6.3 -7.73,-5.27 -14.55,-11.69 -4.78,-4.5 -8.56,-7.8 -12.69,-13.59 -4.12,-5.78 -11.61,-24.62 -12.17,-28.7 -1.64,-11.95 -1.62,-53.28 1.09,-62.11 1.42,-4.62 2.55,-5.6 3.05,-11.42 1.95,-22.53 2.89,-11.08 4.53,-21.38 0.67,-4.14 0.35,-8.01 1.73,-11.78 4.73,-12.91 11.14,-39.05 16.33,-49.22 2.62,-5.13 1.64,-4.99 3.34,-9.94 1.69,-4.91 2.68,-3.42 4.27,-8.83 1.46,-4.99 0.6,-5.02 3.07,-10.02l13.08 -39.39c1.92,-5.2 2.82,-3.85 4.34,-10.17 1.47,-6.11 0.86,-4.91 3.31,-9.92 5.82,-11.91 8.36,-27.89 12.83,-39.77 10.47,-27.83 11.19,-29.23 19.6,-60.46l22.92 -83.56c7.73,-27.33 11.03,-49.39 21.9,-76.55 4.57,-11.4 13.06,-29.39 26.37,-33.26zm-158.56 346.63c-1.83,13.74 -0.78,2.9 -7.71,22.37l-17.53 55.95c-3.79,25.45 -5,10.6 -7.39,22.79 -0.75,3.81 -0.68,9.44 -1.27,13.53 -1.24,8.64 -4.22,13.36 -4.3,23.94 -0.14,18.21 0.9,39.05 -5.78,53.79 -5.97,13.17 -13.72,28.97 -30.06,28.64 -15.76,-0.3 -33.9,-6.84 -48.93,-9.97 -14.21,-2.96 -14.93,-4.55 -24.5,-5.79 -6.07,-0.8 -5.63,-1.83 -10.54,-3.73l-35.01 -9.58c-8.62,-2.42 -15.49,-1.61 -21.61,-7.34l6.76 -3.69c6.95,-3.64 11.59,-8.85 13.69,-16.45 3.18,-11.47 0.08,-25.5 -3.51,-34.89 -1.75,-4.56 -1.6,-3.09 -5.37,-6.48 -5.77,-5.18 -9.87,-8 -20.95,-5.59 -6.35,1.38 -7.51,3.98 -11.51,8.15 -7.18,7.5 -1.8,8.57 -5.41,13.98l8.48 -37.16c5.66,-6.32 19.33,-16.85 30.16,-18.4 12.01,-1.73 16.59,0.43 28.25,7.41 12.72,7.61 27.97,15.73 42.46,12.07l5.13 -18.75c4.06,-22.59 8.46,-19.49 1.16,-38.16 -2.46,-6.29 -1.13,-6.3 -6.75,-16.89 -2.01,-3.77 -8.14,-11.01 -10.67,-13.05 -18.3,-14.72 -26.1,-19.59 -52.24,-16.4 -17.18,2.63 -22.35,15.07 -25.27,30.23 -1.74,9.07 -1.83,15.12 1.25,24.4 2.33,7.03 6.85,8.96 9.37,16.69 -2.5,2.82 -3.02,3.75 -6.14,5.39l-20.85 10.77c-13.77,8.64 -13.72,19.81 -16.64,26.77 -6.13,14.61 1.46,40.5 7.81,53.54 5.24,10.76 7.11,7.73 7.64,11.83l-85.53 -18.09c-4.28,-1.46 -6.95,-2.37 -11.22,-3.21 -35.87,-7.11 -32.62,-1.66 -35.93,-11.42 -1.82,-5.38 -2.66,-4.79 -4.57,-9.84 -8.95,-23.75 -6.09,-22.34 -6.09,-53.92 0,-44.86 0.43,-21.14 5.08,-41.83 1.14,-5.09 0.31,-8.32 1.11,-13.2 0.88,-5.3 3.5,-6.38 4.54,-11.22 1.19,-5.47 -0.2,-6.73 2.22,-12.45 2.82,-6.67 1.92,-4.96 3.14,-12.51l54.28 -159.95c5.84,-14.65 13.65,-43.27 17.75,-58.42 4.33,-15.99 7.37,-13.57 14.72,-45.69 1.25,-5.46 2.66,-6.25 4.07,-11.92 1.74,-7.02 1.89,-4.93 3.94,-10.44l7.45 -24.07c2.36,-5.37 2.69,-2.56 5.15,-10.61 2.88,-9.46 8.56,-19.73 9.04,-21.13 2.05,-5.89 -0.74,-0.79 3.73,-10.73l23.39 -52.89c3.94,-8.22 10.98,-22.03 15.74,-28.92 4.24,-6.12 8.55,-11.58 12.63,-17.55 35.99,-52.71 75.38,-63.08 136.2,-45.32 7.46,2.17 42.69,17.18 54.87,21.39 7.87,2.72 13.18,6.64 19.85,10.35 14.25,7.95 33.7,19.18 44.81,31.44 1.57,1.73 1.85,2.4 3.5,4.38l18.29 19.84c2.74,3.48 9.27,14.99 11.02,19.2 23.16,55.63 9.25,61.88 -5.66,123.07 -2.87,11.81 -13.93,38.49 -15.72,46.01 -1.28,5.38 -2.59,7.05 -3.82,12.03 -1.22,4.94 -1.8,6.73 -3.38,11.01 -2.81,7.64 -5.02,19.45 -11.13,34.88 -2.06,5.2 -0.88,6.99 -3.26,12.48 -2.3,5.27 -1.99,6.33 -3.91,11.88 -1.57,4.57 -2.71,4.15 -4.11,10.33 -1.41,6.2 -2.44,6.66 -3.88,12.01l-7.03 23.13c-1.27,4.44 -2.56,5.83 -3.8,10.75l-7.48 22.67c-3.09,5.54 -15.27,48.17 -17.92,58.14 -1.71,6.44 -2.74,4.63 -4.3,10.42zm-237.7 -487.35l-12.86 45.67c-0.7,5.41 -8.84,27.6 -9.42,30.28 -2.1,9.85 -2.72,6.95 -5.5,14.37 -5.58,14.89 -13.57,58.4 -20.89,78.91 -4.86,13.64 -6.74,16.41 -10.44,30.44 -4.87,18.43 -27.91,75.37 -35.87,103.22 -1.53,5.36 -1.77,10.29 -4.81,14.93 -5.88,8.98 -2.52,3.37 -5.14,14.65 -1.07,4.62 -3.5,7.58 -5.23,14.39l-15.18 45.22c-0.96,2.57 -4.42,13.41 -5.15,14.64 -1.7,2.92 -2.18,1.1 -4.04,6.38 -4.01,11.36 -9.13,21.82 -10.48,28.91l-8.16 22.09c-0.96,2.93 -1.16,6.37 -2,8.64 -1.14,3.1 -2.5,3.76 -3.87,6.61 -1.74,3.64 -0.84,3.28 -1.96,7.13 -1.43,4.89 -1.95,3.47 -3.45,7.17 -2.26,5.59 -0.04,9.99 -2.9,16.83 -11.13,26.62 -9.31,94.67 0.55,125.38 2.82,8.77 2.46,7.02 5.89,13.85 7.06,14.06 16.47,30.75 28.25,41.39 2.09,1.88 3.37,2.65 5.5,4.95 1.72,1.86 2.72,3.47 4.23,4.98 7.71,7.68 30.84,25.67 40.13,30.83 6.7,3.71 33.08,17.28 39.63,19.54 2.79,0.96 9.34,3.99 13.68,5.97 7.86,3.6 21.89,7.52 30.55,10.24 35.45,11.13 107.08,18.77 140.5,4.54 10.2,-4.35 5.32,1.51 28.03,-11.35 7.72,-4.38 17.72,-9.28 24.81,-14.7 25.3,-19.32 21.99,-23.17 51.11,5.63 17.44,17.25 71.77,17.42 93.1,9.91 10.19,-3.59 9.62,-1.2 25.75,-9.74 16.77,-8.89 32.81,-24.62 44.58,-39.6l16.54 -22.82c10.04,-18.39 19.87,-31.76 27.01,-53.12l12.09 -28.7c4.79,-12.7 10.42,-30.92 15.77,-43.4l22.84 -77.31c0.94,-5.78 3.3,-7.06 4.61,-14.77l9.03 -30.35c2.55,-6.26 0.72,-10.85 3.8,-17.3 4.14,-8.66 1.31,-7.3 3.17,-16.45 1.19,-5.81 3.99,-8.07 4.59,-14.9 0.79,-8.96 1.22,-8.92 3.41,-16.55 2.16,-7.51 1.23,-10.85 2.52,-18.52 0.9,-5.31 3.38,-10.06 4.17,-15.32 0.93,-6.21 -0.05,-12.12 1.49,-18.51 3.49,-14.59 3.6,-21.46 3.96,-37.37 0.28,-11.99 2.24,-13.29 2.24,-36.76 -0.01,-14.1 0,-24.76 -1.49,-38.15 -0.49,-4.41 -0.48,-14.55 -1.3,-18.25 -1.56,-6.96 -3.45,-2.24 -4.73,-15.57 -0.63,-6.57 -2.15,-5.49 -5.23,-14.03 -4.45,-12.33 -12.67,-29.51 -21.85,-38.63 -23.64,-23.47 -17.34,-13.76 -35.01,-25.4 -3.7,-2.43 -8.61,-5.96 -12.32,-7.44 -8.66,-3.49 -23.24,-5.67 -29.97,-9.34 -9.82,-1.56 -21.07,-1.42 -31.52,-1.19 -13.85,0.29 -14.36,-1.29 -26,3.39l-5.73 -8.84c-0.01,-0.05 -4.59,-16.79 -7.11,-21.66 -18.28,-35.39 -9.83,-18.33 -27.25,-41.02 -15.85,-20.62 -62.62,-45.26 -80.03,-57.98 -17.84,-13.02 -27.04,-12.94 -36.45,-18.67 -18.75,-11.44 -29.36,-14.31 -48.34,-21.44 -4.1,-1.54 -6.64,-1.03 -10.78,-2.17 -4.83,-1.34 -4.72,-3.01 -10.66,-3.79 -4.74,-0.61 -7.63,0.09 -12.1,-1.15 -10.34,-2.88 -10.47,-3.75 -22.61,-4.58 -14.46,-2.85 -24.67,0.8 -34.61,4.39 -4.65,1.68 -6.05,0.3 -11.14,2.11 -18.02,6.4 -14.41,6.25 -26.7,12.68 -3.6,1.88 -12.77,9.65 -15.19,12.44l-6.22 6.94c-2.21,2.77 -4.52,5.36 -5.74,7.34 -13.22,21.52 -11.11,40.36 -16.1,49.86z"/>
   <path class="fil0" d="M1855.18 568.82c-1.08,-2.48 -0.91,-3.09 -2.14,-5.71l-8.66 -22.79c0,-6.07 5.57,-3.57 9.66,-2.02 6.09,2.31 7.56,1.36 12.82,2.97 52.32,15.94 30.27,62.53 21.49,64.12 -12.53,2.26 -28.87,-26.79 -33.17,-36.57zm52.51 -81.94c-1.38,-19.53 14.88,-1.63 15.1,7.65 0.14,6.32 -4.54,8.36 -10.21,8.75 -4.24,-5.96 -4.2,-6.53 -4.89,-16.4zm5.22 -200.59c1.39,0.93 20.26,24.1 21.69,30.82 7.57,35.35 -21.52,23.48 -40.01,-5.93 -5.52,-8.78 -10.96,-7.42 -10.96,-29.74 0,-11.52 26.31,2.88 29.28,4.85zm52.54 -27.6c2.85,3.57 8.16,13.44 11.19,19.06 6.86,12.72 8.47,13.02 8.47,26.03 0,10.58 -11,11.04 -18.42,6.28 -17.48,-11.22 -30.58,-31.92 -34.53,-53.67 -2.41,-13.28 4.54,-10.09 15.82,-9.05 7.76,0.72 13.43,6.3 17.47,11.35zm48.55 -6.95c2.72,-9.09 -12.33,-11.17 -18.14,-11.71 -9.92,-0.92 -21.79,0.14 -30.58,-2.18 -18.11,-4.78 -21.17,-2.72 -27.17,-4.34l1.74 -17.69c-8.29,2.61 -21.77,8.19 -29.95,8.19 -9.98,0 -13.98,-2.39 -23.49,-5.76l-18.71 -8.88c-5.48,-2.44 -6.9,-3.82 -12.2,-6.29 -21.66,-10.07 -43.26,-23.61 -47.84,-1.47l20.98 13.91 39.1 14.98c9.1,1.82 21.99,9.57 41.81,10.74 3.21,7.16 13.83,29.11 12.94,37.03 -9.09,-7.95 -24.86,-23.89 -38.87,-23.89 -10.01,0 -8.68,0.87 -21.11,5.94l-0.36 14.55c2.12,12.81 8.63,21.96 13.77,30.03 3.44,5.39 5.18,8.14 8.7,12.35 4.54,5.43 7.57,8.41 8.51,12.85l-49.68 -10.01c-35.84,-4.34 -36.64,18.74 -25.52,18.74 12,0 24.39,-2.07 27.61,-2.05 4.51,0.02 43.88,4.93 50.84,8.04 14.62,6.53 10.09,0.91 12.3,7.58l-4.13 1.44c-0.41,0.08 -0.75,0.08 -1.17,0.14 -4.8,0.66 -9.47,0.26 -15.44,4.07 -10.27,6.57 -18.36,24.17 -17.44,34.94 0.66,7.78 2.03,0.88 2.03,22.12 -13.79,1.64 -37.04,0.26 -37.04,18.77l13.75 12.76c4.86,-0.55 6.13,-7.8 19.93,-7.8l20.51 4.98c-40.68,6.16 -31.68,2.18 -42.83,18.93 -5.21,7.83 -11.85,20.94 -8.59,32.32 0.79,2.76 1.68,3.41 2.56,6.55 4.9,17.37 7.24,8.16 6.9,17.18 -12.15,-0.91 -14.42,0.17 -19.52,-5.86 -14.71,-17.44 -34.75,-42.86 -58.83,-43.74 -3.78,-0.13 -9.64,-0.16 -13.24,0.25 -13.63,1.54 -29.54,27.5 -15.31,36.06 22.28,-16.63 33.06,-30.85 59.31,-9.17 8.13,6.72 12.67,18.1 18.5,27.55 14.55,23.62 5.68,10.02 15.21,30.75 1.99,4.34 6.32,11.82 7.71,16.07 2.58,7.95 -0.23,2.49 4.21,7.44 4.11,4.58 10.98,26.33 22.35,34.19 10.79,7.46 23.4,10.2 31.71,-0.61 16.45,-21.4 11.44,-34.82 9.12,-56.02 -0.79,-9.14 5.31,-6.96 7.29,-14.49 -20.85,-7.66 -69.72,-22.05 -65.93,-50.84 1.41,-10.67 4.35,-18.52 12.19,-25.09 8.91,-7.46 19.9,-4.93 26.98,2.2 15.54,15.64 -4.03,48.39 25.68,48.39l16.28 -37.81c-2.38,-5.19 -3.21,-5.42 -7.26,-8.52 -5.12,-3.92 -3.32,-3.97 -7.47,-8.32 -3.36,-3.52 -9.22,-6.85 -13.34,-10.32 0,-0.01 -1.82,-1.63 -2.1,-1.89 -2.12,-1.97 -0.56,-0.4 -2.07,-2.03l35.67 3.97c-13.23,-19.52 -5.46,-12.66 -30.59,-23.26 -16.14,-6.81 -22.86,-11.42 -22.86,-31.93l11.68 -22.24c7.46,-4.16 17.69,-3.51 24.71,1.15l9.8 7.3c11.67,9.82 18.78,17.54 12.94,29.66l-15.06 -0.19 13.38 18.67c10.78,-1.64 16.94,-9.5 18.84,-19.48 6.17,-32.5 -21.9,-43.61 -21.6,-51.67l9.01 -23.65 0 -9.2 5.85 -5.73c5.22,2.85 7.78,5.38 12.91,6.95 10.85,3.32 27.84,3.55 31.87,-6.12 2.29,-5.47 2.12,-30.74 0.43,-36.7 -3.02,-10.63 -11.94,-22.65 -7.99,-28.65l25.82 -4.13z"/>
   <path class="fil0" d="M569.73 1104.79c6.36,1.91 6.17,8.06 4.57,14.33 -1.27,4.96 -3.57,9.72 -8.75,10.02 -8.2,0.48 -4.29,-6.43 -2.42,-11.91 3.44,-10.1 2.17,-10.14 6.6,-12.44zm-63.78 -15.24c-5.88,6.89 -5.09,7.53 -6.65,13.57 -0.69,2.66 -0.7,2.34 -1.39,3.93 -3.26,7.51 -1.9,14.6 -4.38,19.41 -6.14,-7.14 -2.34,-2.41 -3.81,-9.5 -2.31,-11.09 -12.57,-13.87 -17.2,-9 -5.63,5.94 1.94,6.82 -8.07,8.36 -0.35,-6.21 1.22,-28.09 -12.68,-21.38 -8.28,4 -6.61,20.36 -5.97,30.51 0.98,15.72 -4.84,55.03 4.76,63.42l14.85 -0.09 -0.03 -15.92c1.7,-4.66 1.09,-7.95 3.77,-13.91 3.38,-7.39 5.84,-8.28 7.17,-1.08l0.27 21.38c6.78,12.68 13.55,12.55 20.32,0.53l3.47 -23.2c5.17,-44.12 1.3,17.63 18.32,36.6 6.77,7.58 25.52,7.36 26.22,-12.22 7.46,3.69 9.85,10.09 16.38,14.31 12.87,8.31 27.18,-2.18 28.55,-2.69 16.62,-6.26 13.15,-11.21 22.82,-10.47 4.92,8.86 4.28,9.84 12.05,14.95l8.83 -8.09c3.61,-4.04 11.09,-35.07 12.39,-36.97 4.21,21.83 2.6,27.54 13.51,35.83 4.83,3.68 10.79,6.82 17.96,1.69 0.62,-0.45 3.05,-3.06 3.27,-3.39 2.86,-4.32 1.88,-9.67 0.82,-14.28 -17.32,-4.54 -10.77,-1.77 -13.35,-13.59 -0.96,-4.35 -2.32,-4.89 -3.01,-10.7 -1.31,-11.02 -0.66,-28.11 -0.63,-39.55 0.03,-14.69 0.67,-11.37 -6.75,-18.37 -6.16,-0.14 -12.51,2.29 -14.61,7.62 -2.22,5.63 1.18,1.83 -4.27,15.63 -2.64,6.68 -0.67,9.6 -3.88,15.71 -5.66,10.77 -2.11,6.56 -4.89,14.69l2.5 -39.26c0.73,-7.22 2.23,-16.19 -4,-19.48 -4.87,-2.58 -12.42,-0.87 -16.02,3.43l-2.23 71.75 -16.15 6.92c-3.37,5.42 -6.34,8.57 -15.29,9.59 -23.79,2.73 -23.98,-17.89 -20.79,-25.93 6.52,-0.85 13.7,-1.26 19.8,-3.92 4.76,-2.08 9.57,-8.44 11.57,-13.35 1.67,-4.11 2.89,-7.77 3.11,-13.12 0.47,-11.76 0.56,-19.95 -5.38,-28.08 -10.27,-14.02 -29.65,-11.78 -38.46,9.76 -3.74,9.17 -3.83,16.65 -7.84,24.9 -12.19,25.1 7.83,50.63 -11.69,48.31l-7.05 -41.8c-0.01,-10.08 1.44,-37.46 -3.7,-43.62l-12.54 0.16z"/>
   <path class="fil0" d="M1229.7 787c-2.27,-8.82 -4.27,-36.5 0.74,-43.23 5.69,-7.65 19.94,-7.86 31.85,4.07 16.97,17.01 10.37,19.51 -0.84,25.69 -5.33,2.94 -1.81,2.42 -6.99,4.71l-16.21 7.64c-3.59,1.88 -3.97,2.09 -8.55,1.12zm-3.07 -143.54c1.73,4.91 2.32,4.2 6.04,7.84 1.92,1.88 1.51,1.47 3.13,3.42l15.27 17.01c-1.85,7.47 -17.44,13.85 -31.8,27.41 6.95,12.21 16.61,0.04 27.52,-5.98l11.35 -3.95c3.86,3.17 3.6,5.52 6.07,10.72l6.69 11.67c3.95,7.52 7.84,15.66 11.86,23.61 2.34,4.65 3.66,5.27 6.54,10.59 8.69,16.07 6.62,15.74 19.11,35.01l-11.01 10.51c5.42,20.86 8.75,22.98 -3.6,34.31 -16.41,15.05 -33.01,1.35 -44.58,-6.93 -26.94,-19.31 33.35,-28.94 37.9,-36.6 3.62,-6.09 -5.75,-43.84 -29.85,-55.54 -37.86,-18.38 -61.26,45.39 -30.65,85.88 2.79,3.68 3.29,4.3 5.95,7.16 2.74,2.94 3.59,4.79 6.23,8.23 5.4,7.05 9.79,8.27 16.13,12.74 42.92,15.66 66.04,-13.03 65.03,-35.64 5.61,3.29 20.81,33.57 38.63,42.33 10.39,5.11 20.09,8.13 32.08,2.98 1.94,-0.83 10.08,-6.1 11.84,-7.9 2.99,-4.76 7.33,-20.21 5.59,-26.05l-7.57 -11.61c-2.74,2.67 -0.24,-1.32 -1.57,2.77 -0.55,1.69 -0.56,2.65 -0.77,4.45 -0.78,6.46 -2.7,18.38 -7.39,22.67 -18.33,16.76 -40.26,-15.14 -49.14,-29.54 -6.24,-10.13 -5.82,-8.31 -11.02,-20.01 4.35,1.05 1.11,-0.39 5.1,3.62 5.17,5.2 16.64,10.99 19.71,11.69 8.1,1.84 19.73,-1.85 27.75,-6.22 5.82,-3.17 9.57,-6.33 13.51,-10.14l15.09 -30.76c2.2,-9.47 -2.87,-12.08 -8.74,-17.97 -4.51,6.36 -10.96,29.35 -17.74,36.01 -16.75,16.48 -38.48,5.41 -50.37,-14.64 -2.12,-3.58 -2.69,-2.7 -3.98,-6.54 -10.05,-29.98 21.87,-68.43 34.98,-22.33 13.6,0 8.71,-13.95 4.81,-20.1 -20.99,-33.11 -58.36,-3.08 -52.65,44.77 1.45,12.12 1.18,7.44 4.81,20.51 -5.39,-2.57 -6.28,-9.78 -13.01,-20.18 -0.16,-0.24 -0.36,-0.57 -0.52,-0.8 -3.42,-4.99 -1.82,-0.9 -4.65,-7.13 -3.22,-7.11 -28.31,-49.66 -29.98,-54.17l-3.89 -13.88c2.21,-3.55 4.32,-3.62 8.62,-6.08 15.93,-9.12 5.69,0.39 24.85,-22.6l-7.72 -8.92c-4.13,2.47 -4.21,2.95 -6.96,7.51 -4.26,7.04 -2.52,2.21 -7.36,8.45 -6.44,8.31 -7.74,7.36 -19.31,11.35 -3.37,-4.39 -15.76,-27.87 -24.95,-29.91 -7.54,-1.68 -8.7,2.32 -11.41,6.9z"/>
   <path class="fil0" d="M221.4 704.03c17.01,-5.05 31.95,9.38 18.47,11.93 -3.77,0.72 -17.46,1.68 -19.77,0.64 -4.91,-2.2 -6.46,-10.26 1.3,-12.57zm23.41 56.67c-11.54,11.18 -20.74,5.82 -31.43,-1.94 -25.1,-18.22 -20.47,-53.96 -9.91,-58.32 1.04,25.58 -1.75,23.07 14.53,27.47 12.49,3.38 26.95,-4.13 35.59,-1.42 2.96,14.72 -0.62,26.3 -8.78,34.21zm-75.17 -99.48c0,-5.1 0.41,-11.43 3.05,-14.72 2.73,-3.39 5.42,-6.55 10.76,-6.12l3.23 12.96c1.45,11.78 -9.81,46.44 -13.23,59.44l-3.81 -5.56 0 -46zm-30.86 91.7c19.65,1.94 8.03,-36.79 7.42,-42.38 -0.61,-5.63 -0.82,-11.8 -1.38,-17.17 -0.92,-8.87 -6.49,-46.25 -3.13,-52.67 4.75,-9.06 6.98,-8.28 10.57,-8.49l3.31 13.24c0.52,5.19 -1.94,31.19 -2.19,38.1 -0.46,12.26 -0.77,27.29 -0.77,39.44l13.01 8.61c-3.94,17.09 -6.44,24.37 -7.09,42.64 -0.23,6.63 -0.3,42.67 12.81,31.22l1.72 -15.4c1.18,-18.41 -0.02,-21.43 0.15,-26.32 0.13,-3.66 4.74,-32.97 11.56,-36.4l6.05 22.45c7.11,23.59 36.31,39.43 58.22,25.67 3.08,-1.94 1.47,-0.58 3.74,-2.86 2.07,-2.1 5.63,-5.84 6.95,-7.5 3.94,-4.98 8.03,-12.96 8.79,-20.36 1.59,-15.46 -7.44,-22.06 0.82,-34.36 3.95,-5.89 6.37,-5.71 8.71,-5.91 3.48,8.22 2.29,8.38 3.74,18.6 3.58,25.26 0.66,51.61 14.42,50.19 5.41,-9.66 3.78,-4.89 3.86,-17.43 0.26,-45.52 -20.13,-67.45 4.91,-101.83 8.29,-11.39 21.93,-7.08 31.19,1.67 6.47,6.11 14.17,3.44 16.43,-3.65l-6.54 -10.25c-1.06,-1.03 -23.66,-12.01 -37.52,-5.28 -6.88,3.34 -12.76,10.41 -15.33,17.52 -7.25,20.01 -12.91,11.45 -17.62,14.87 -6.24,4.53 -9.47,25.85 -17.63,31.13 -24.67,-11.01 -14.39,-8.01 -40.48,-8.67l1.59 -10.41 -17.57 0.14 -0.67 -37.02c-0.4,-9.59 -9.52,-18.54 -20.01,-18.54 -19.9,2.11 -2.17,7.63 -36.55,-6.19 -8.87,6.1 -2.51,7.62 -18.33,19.68 2.48,16.26 2.22,12.1 2.2,28.79 -0.02,25.73 3.74,38.31 4.43,56.5 0.39,10.36 -0.38,19.16 1.78,28.22l4.43 0.41z"/>
   <path class="fil0" d="M1478.93 1085.26c14.59,-2.58 15.95,3.89 18.01,15.23 2.35,12.94 3.65,19.33 0.55,32.75 -3.08,13.32 -10.03,40.14 -28.04,42.19 -15.69,1.8 -23.55,-31.39 -18.56,-46.86 4.7,-14.53 6.36,-39.47 28.04,-43.31zm-89.09 26.53c-2.63,-7.14 1.61,-64.47 5.02,-72.14l4.11 7.84c0.54,2.03 -1.19,56.89 -9.13,64.3zm2.18 -102.89c-8.61,3.15 -9.64,8.53 -12.47,18.14 -2.45,8.29 -4.86,18.11 -5.52,27.1 -0.66,26.69 -13.24,116.3 9.87,135.83 14.19,11.99 21.46,7.79 31.44,0.32 18.25,-13.65 7.89,-23.18 17.94,-28.88 3.44,8.78 6.08,20.24 12.68,26.94 5.4,5.48 2.85,1.22 9.97,5.78 1.95,1.24 2.51,2.13 5.04,2.82 22.02,5.99 37.27,-20.5 40.31,-21.79 5.12,7.41 10.57,18.31 21.94,12.78 16.67,-8.1 -1.77,-19.76 -3.41,-23.6 -12.85,-29.99 8.89,-69.95 -12.78,-90.96 -3.44,-3.33 -12.6,-7.26 -15.42,-9.83 -15.74,-0.86 -22.4,-0.74 -31.68,7.09 -14.62,12.33 -21.91,30.55 -26.1,48.77 -1.57,6.84 -3.34,6.82 -3.55,14.83 -0.32,12.28 2.04,18.09 -5.18,16.11 -2.81,-0.76 -0.45,-1.33 -3.77,-0.09 -11.94,4.48 -2.87,15.71 -14.65,25.46 -16.23,0.18 -24.16,-22.2 -12.07,-32.46 5.33,-4.51 9.55,-10.42 11.86,-17.04 2.59,-7.43 4.54,-13.88 5.36,-22.22 2.83,-28.58 5.42,-51.67 -0.53,-80.74 -1.55,-7.54 -5.85,-12.33 -11.04,-15.64l-8.24 1.28z"/>
   <path class="fil0" d="M1094.68 1085.53c10.63,-3.37 17.92,3.21 18.3,11.99 0.76,17.72 -2.32,73.1 -22.02,77.2 -26.4,5.51 -22.99,-26.46 -23.12,-45.7 -0.07,-10.91 3.05,-20.34 7.34,-27.95 3.55,-6.32 12.93,-13.46 19.5,-15.54zm55.42 -1.13c5.75,48.42 2.35,15.6 0.22,61.75 -0.02,10.12 0.05,22.97 -6.42,28.37l-9.14 -12.68c-11.36,-18.47 7.36,-62.9 -9.33,-86.6 -6.63,-9.41 -33.16,-21.1 -52.42,-1.33 -7.94,8.15 -14.68,20.84 -18.61,31.39 -4.87,13.06 -7.02,27.69 -7.02,43.47l7.05 29.03c4.53,9.21 16.42,14.43 19.19,16.31 10.06,6.8 14.7,3.78 24.7,-1.54 12.52,-6.66 13.12,-12.42 18.94,-15.93l11.74 12.19 15.01 5.86c3.05,4.19 9.13,5.11 12.54,0.91 0.71,-0.87 6.08,-12.87 6.17,-13.25 0.88,-3.67 0.51,-5.51 1.95,-8.94 1.42,-3.41 2.79,-4.16 4.2,-4.96l7.48 14.9c10.8,19.01 40.82,3.27 36.2,-10.73l-20.42 -2.37 -2.8 -13.15c-6.08,-22.01 2.48,-50.81 2.48,-63.53l-16.12 -9.57 -10.55 -15.63c-8.35,-2.46 -14.8,0.59 -14.8,9.43l-0.24 6.6z"/>
   <path class="fil0" d="M475.56 690.13c0,-10.6 3.4,-21.65 15.34,-21.65 2.18,0 15.43,11.71 16.9,14.02 1.2,3.99 4.78,19.26 4.78,23.4l-4.15 21.45c-1.17,6.14 -3.09,10.75 -8.33,14.59l-18.99 -10.33c-2.81,-8.94 -5.55,-14.86 -5.55,-24.39l0 -17.09zm93.61 -105.74c-1.98,8.07 0.08,17 1.04,25.44 2.4,21.27 -1.69,49.59 -5.48,70.04 -13.38,-7.4 -4.2,-4.79 -10.76,-6.89l-0.97 16.95c2.1,6.6 4.11,13.19 3.73,21.24 -0.45,9.83 -6.89,33.95 -18.56,28.9l-0.6 -24.32c0.01,-0.04 8.13,-28.05 8.41,-41.37 0.27,-12.85 0.18,-10.07 -5.98,-18.35l-9.36 16.25c-0.35,6.27 -1.41,19.93 -4.46,25.28l-2.31 -28.47c-1.15,-22.89 2.55,-72.34 -1.05,-92.46 -0.74,-4.15 -0.5,-10.87 -4.03,-12.87 -15.37,-8.73 -10.9,31.16 -10.63,37.05 0.56,12.23 2.4,52.88 -0.33,62.9 -9.21,-5.69 -11.49,-8.61 -23.54,-7.03 -29.98,3.93 -34.23,60.7 -24.49,86.91 6.37,17.13 22.76,20.02 37.88,16.55 7.84,-1.8 5.2,-0.29 9.11,-5.49 3.49,-4.64 3.78,-3.47 5.89,-8.34 13.33,4.39 25,10.64 35.4,7.54 13.16,-3.92 13.86,-11.5 18.7,-23.42l2.17 2.36c0.19,0.24 0.43,0.56 0.63,0.8l6.3 6.87c4.38,4.08 5.2,5.44 13.44,4.74l2.26 -19.07c-0.44,-9 -11.19,-29 -9.13,-59.7 1.29,-19.01 5.41,-68.3 -6.36,-82.4l-6.92 0.36z"/>
   <path class="fil0" d="M172.94 1175.16c-20.73,0 -23.65,-43.26 -11.76,-61.83 2.74,-4.27 5.98,-10.25 10.13,-12.19 34.43,-16.06 41.4,51.48 22.87,67.55 -2.93,2.55 -14.79,6.47 -21.24,6.47zm-101.8 -35.59c0,-11.42 4.9,-35.85 9.73,-47.45 17.09,-32.2 15.8,20.77 17.07,34.43 12.23,12.31 21.75,-14.81 20.31,-26.28 -1.66,-13.19 -14.78,-38.9 -30.7,-38.15 -33.47,1.57 -50.8,101.32 -16.06,127.65 18.63,14.12 40.49,10.6 57.39,-4.91 7.81,-7.17 2.98,-8.2 8.59,-11.18 13.07,12.55 7.55,11.78 23.05,20.39 18.9,10.49 45.61,-4.75 55.22,-22.21 5.82,-10.59 8.7,-25.43 7.98,-37.55 -1.38,-23.04 -17.12,-60.31 -48.15,-55.45 -12.45,2.45 -22.97,11.61 -31.98,26.06 -9.18,17.93 -7.22,26.61 -9.01,47.59l-12.23 3.48c-9.02,4.13 1.97,11.08 -12.48,19.07 -14.42,7.97 -26.91,4.48 -32.44,-6.98 -3.81,-7.87 -6.29,-18.94 -6.29,-28.51z"/>
   <path class="fil0" d="M1673.4 1172.6c-8.31,-5.07 -7.29,-41.43 -6.69,-51.49 0.79,-13.09 6.33,-39.55 4.54,-50.46 -15.84,-4.5 -16.72,-5.14 -22.1,36.73 -1.72,18.45 2.12,44.67 0.02,60.52l-15.89 1.82c-3.54,-3.94 -3.91,-3.39 -4.52,-9.21 -1.12,-10.51 0.11,-25.03 0.08,-35.4 -0.06,-18.63 4.34,-37.9 -2.22,-43.99 -7.34,1.12 -13.92,4.75 -13.55,2.03 2.47,-18.23 -17.63,-25.94 -24.02,-10.98 4.83,42.19 6.91,34.34 -0.58,71.82 -1.35,6.76 -0.12,12.2 -2.05,17.71 -1.56,4.48 -8.09,25.34 -6.11,30.1 2.18,5.19 5.81,7.13 11.38,5.92 5.41,-2.99 11.62,-21.9 12.22,-24.96 0.42,-2.13 3.47,-42.17 3.85,-43.74 1.09,-4.58 -0.64,-1.47 1.85,-4.03 4.28,11.27 3.51,61.19 13.88,65.91 14.46,6.58 22.32,-9.53 30.2,-10.44 4.68,6.88 9.52,16.44 19.62,15.99 5.11,-0.23 9.64,-3.93 12.24,-6.66 3.12,-3.27 4.94,-7.95 7.56,-9.44l13.62 11.37c6.74,1.51 12.58,-5.03 13.46,-9.31 1.61,-7.89 -6.11,-10.97 -8.19,-15.68 -1.26,-2.84 -2.14,-5.98 -3.25,-8.66 -1.47,-3.51 -1.71,-5.7 -1.99,-9.67 -1.02,-14.52 -0.64,-33.39 -0.86,-48.33 -0.22,-14.93 -3.85,-28.92 -20.77,-20.11l0.01 53.1c-0.13,14.02 -1.26,13.66 -3.83,22.55 -1.89,6.53 -0.2,14.32 -7.91,16.99z"/>
   <path class="fil0" d="M992.55 493.84c9.53,-3.86 13.65,10.95 14.14,19.07 0.83,13.89 -2.41,16.55 -14.1,16.34 -14.79,-0.26 -29.58,-23.42 -0.04,-35.41zm33.3 40.08c-3.74,1.66 -1.89,1.16 -4.23,2.47 -4.48,2.49 -4.9,1.55 -9.54,2.45 2.39,-9.29 7.8,-11.23 6.67,-23.19 -1.36,-14.54 -5.19,-16.56 -3.05,-24.77 8.4,-0.45 12.97,-1.85 17.44,1.26 6.57,4.58 5.31,9.12 6.14,13.52 2.02,10.63 -0.99,21.97 -8.74,26.4 -1.6,0.92 -2.48,0.88 -4.69,1.86zm-62.91 -72.45c0,9.43 14.95,11.64 10.67,22.64 -2.24,4.63 -14.86,22.16 -13.64,25.99l23.28 32.47 1.29 13.92c12.11,2.88 37.77,-2.5 48.54,-7.33 3.39,-1.52 13.72,-8.62 16.72,-12.28l7.95 -22.84c0,-2.16 -1.91,-14.68 -2.56,-16.55 -2.94,-8.51 -17.41,-21.05 -30.63,-25.73 -10.64,-3.76 -23.49,-0.4 -35.64,-2.42 -4.7,-0.79 -10.53,-3.48 -8.21,-8.13 11.73,-1.19 51.2,-2.71 54.87,-4.26l20.68 -13.87 -0.28 -9.36c-10.32,-4.04 -24.7,-2.92 -35.87,-0.08 -78.11,16.31 -91.59,-24.97 -77.44,-37.85 11.79,-10.73 33.23,-8.72 21.21,-23.62 -17.03,-15.91 -52.12,24.52 -26.31,60.48 3.89,5.41 9.74,7.46 15.85,11.72 16.16,11.26 9.52,8.03 9.52,17.1z"/>
   <path class="fil0" d="M331.5 1090.53c17.54,-21.8 39.5,-18.94 30.17,50.48 -0.87,12.9 -6.2,34.15 -20.55,34.15 -15.91,-1.31 -23.15,-14.91 -22.59,-39.54 0,-14.5 3.77,-33.66 12.97,-45.09zm72.64 91.96l0.18 -14.2 -14.27 -0.16 -5.51 -18.09 -3.05 -61.67c0.21,-13.97 0.4,-30.39 1.54,-43.41 1.22,-13.84 3.82,-31.88 -7.68,-35.99 -15.13,-2.08 -14.22,7.51 -13.04,29.36 1.69,31.17 5.54,24.57 -16.03,24.89 -20.97,0.31 -37.09,22.68 -42.65,44.08 -2.74,10.55 -2.57,29.67 -1.58,41.49 1.42,17.08 4.71,35.75 22.36,42.88 5.75,2.32 13.15,11.11 32.74,-1.92 7.27,-4.83 6.67,-8.4 9.2,-11.63 7.96,6.04 8.28,7.33 17.76,10.55 10.03,3.41 14.75,-1.66 20.03,-6.18z"/>
   <path class="fil0" d="M1250.33 1175.16c-7,0 -9.48,-1.16 -12.32,-6.22 -13.43,-23.99 -5.61,-81.73 23.32,-84.02 18.87,-1.49 16.21,10.04 17.77,32.58 1.06,15.43 -9.35,57.66 -28.77,57.66zm59.98 10.02c0.91,-17.98 -5.98,-9.41 -13.75,-28.64 -4.69,-11.6 2.17,-58.29 0.11,-65.87 -2.42,-8.88 -4.54,-13.98 -10.05,-18.94 -4.95,-4.45 -10.69,-8.41 -19.14,-8.55 -31.1,-0.5 -39.25,24.61 -42.59,28.6 -4.7,5.59 -7.75,11.57 -9.27,19.48 -2.62,13.61 -6.14,19.02 -4.09,36.8 0.33,2.83 3.81,22.06 4.25,23.25 1.79,4.75 0.55,0.66 3.06,4.98 4.72,8.13 -1.09,2.54 9,12.03 28.37,26.64 50.35,-11.2 52.71,-13.04 11.36,12.02 6.84,9.01 19.71,15.61l10.05 -5.71z"/>
   <path class="fil0" d="M656.87 672.18c1.94,-3.08 4.3,-11.86 -0.96,-15.89l-15.07 5.08c-4.94,3.81 -1.2,15.56 -6.95,18.1l-5.06 1.58c-3.63,1.05 -2.13,0.63 -5.55,2.21 -14.97,6.91 -26.52,5.31 -15.93,-15.97 2.57,-5.18 3.16,-6.38 6.04,-11.06 14.29,-23.25 32.83,-5.2 30.3,-19.98 -2.14,-12.53 -6.46,-1.72 0,-22.34 -4.98,-5.67 -7.95,-11.37 -20.09,-11.37l-19.64 2.26c-7.29,0.66 -12.85,-0.81 -12.85,7.8 0,11.59 14.88,3.46 29.32,6.99 0.63,4.33 0.92,3.82 -0.42,6.27 -1.24,2.27 -10.68,8.7 -12.74,9.8 -6.55,3.48 -14.56,5.53 -20.61,8.37l9.33 9.31 -5.62 23.65c-0.42,3.51 9.49,23.28 9.7,23.52 11.46,7.69 12.85,3.19 24.27,6.01 1.21,12.4 -1.33,36.78 10.74,43.12 3.54,1.85 12.1,2.2 16.74,1.5 10.36,-1.56 15.6,-11.91 19.36,-20.02 10.34,-22.29 14.26,-39.36 9.06,-62.06 -2.42,-10.57 -2.02,-29.76 -9.57,-37.63l-6.69 20.96c2.67,5.07 5.64,19.76 5.64,25.92l-4.53 38.87c-3.01,5.88 -4.52,9.08 -8.38,12.62 -3.13,2.88 -9.01,6.35 -11.36,6.84l-3.14 -11.03c-0.95,-6.86 8.11,-37.04 10.93,-46.57 2.14,-7.23 1.23,-2.86 3.73,-6.86z"/>
   <path class="fil0" d="M1937.44 1085.23c27.76,-6 22.04,36.97 19.44,44.88 -3.55,10.79 -3.17,17.21 -8.38,26.97 -6.07,11.41 -7.18,17.01 -16.26,18 -13.6,1.48 -16,-5.55 -19.28,-16.29 -3.81,-12.46 -4.21,-15.92 -1.96,-30.01 2.73,-17.14 7.63,-39.48 26.44,-43.55zm38.04 45.14c0,-21.02 4.19,-37.48 -3.48,-50.32 -3.45,-5.79 -1.64,-3.96 -6.39,-8.02 -7.93,-6.78 -18.89,-10.46 -30.52,-8.48 -22.35,3.81 -44.05,42.22 -44.05,69.45 0,31.29 22.06,88.66 61.35,51.69 7.59,-7.14 2.58,-6.84 8.75,-8.49l6.31 8.32c8.14,9.63 27.7,3.27 21.57,-9.69 -5.76,-12.18 -13.54,5.13 -13.54,-44.46z"/>
   <path class="fil0" d="M983.21 621.15c-31.41,-4.36 -25.4,-36.79 13.44,-30.86 9.98,1.52 45.62,28.44 62.05,13.31 23.54,-21.69 5.73,-51.27 -13.54,-41.5l-1.16 4.5c5.12,6.93 10.29,12.35 9.02,18.01 -4.4,19.55 -41.56,-3.94 -57.49,-7.59 -17.3,-3.96 -32.78,-1.63 -39.01,12.48 -11.6,26.26 6.4,32.39 4.77,40.18l-12.38 21.06c-0.13,10.19 6.72,17.01 9.44,23.62l-5.78 11.83c21.92,2.71 26.92,5.93 49.97,-6.05 9.69,-5.04 37.65,-4.01 42.14,-10.45 2.66,-3.81 2.53,-8.82 -0.63,-12.5l-43.4 4.63c-13.38,-0.06 -35.72,7.7 -38.64,-6.91 -1.92,-9.64 1.74,-11.38 11,-11.71 9.27,-0.33 13.93,-1.27 22.55,-0.77 10.61,0.62 39.26,2.64 48.13,0.02l-24.59 -16.93c-12.21,-0.35 -24.54,-2.8 -35.89,-4.37z"/>
   <path class="fil0" d="M1022.26 1154.02c-1.39,5.53 -5.04,13.25 -9.13,16.4 -5.86,4.53 -10.38,5.18 -20.49,4.89 -6.51,-0.18 -5.93,0.48 -7.73,-4.19 -6.92,-17.98 10.48,-65.3 27.73,-56.79 10.22,5.05 12.75,27.27 9.62,39.69zm-39.18 40.44c18.42,-4.15 25.82,1.51 43.38,-9.39 23,-14.27 19.67,-52.88 8.48,-74.54 -3.69,-7.14 -13.81,-16.27 -21.54,-16.39 -16.06,-0.24 -6.09,-2.3 -25.85,4.51l-7.88 -12.1 -13.83 28.82c-2.05,6.29 -1.42,110.92 -1.42,110.93l17.87 22.54c4.14,-15.91 3.97,-9.99 0.83,-25.87 -1.83,-9.27 -2.96,-21.25 -0.04,-28.51z"/>
   <path class="fil0" d="M1030.15 776.87c5.84,6.86 12.5,6.63 15.75,15.76 -9.6,4.81 -11.32,8.26 -23.92,-0.23 -3.71,-2.5 -6.15,-6.15 -10,-8.44 -13.25,-7.91 -23.56,-20.23 -31.05,-21.63 -23.91,-4.48 -29.58,23.55 -24.69,44.49 1.43,6.14 3.73,6.45 7.47,11.03 2.25,2.76 6.21,7.45 1.08,9.75 -5.31,2.39 -7.57,-0.59 -15.04,3.46 -4.84,2.63 -8.46,2.88 -12.2,4.92 -3.53,1.93 -0.84,1.18 -5.39,3.75 -2.79,1.57 -2.83,0.64 -5.78,3.5 -4.36,4.24 -3.7,7.97 0.03,10.79l28.19 -6.28c30.12,-9.59 37.98,-5.81 68.43,-7.87 11.94,-0.82 22.42,2.6 30.85,-6.04l-9.9 -10.55c-18.73,-0.42 -78.89,-6.31 -79.06,-31.97 -0.1,-14.68 13.47,-15.44 26.08,-6.08 21.15,15.69 33.04,32.04 62.09,25.84 10.95,-2.33 17.87,-22.96 3.67,-39.03 -4.72,-5.35 -13.41,-10.05 -21.41,-9.11l-5.2 13.94z"/>
   <path class="fil0" d="M751.84 1136.94c0,-6.62 5.34,-19.93 7.36,-24.68 7.84,-18.44 31.86,-17.59 37.98,-3.05 2.17,5.17 7.22,17.33 7.32,22.41 0.85,43.03 -30.05,50.83 -43.18,38.41 -10.32,-9.76 -9.48,-21.16 -9.48,-33.09zm68.88 15.77c1.89,-19.71 2.9,-49.45 -13.48,-62.81 -19.19,-15.65 -37.31,-14.36 -53.98,0.63 -11.53,10.38 -12.23,15.24 -18.36,32.86 -4.88,14.01 -1.56,35.56 2.49,48.27 4.18,13.12 14.82,18.23 27.17,24.01 13.59,6.37 23.71,-1.13 31.58,-4.39 12.25,-5.06 23.08,-22.86 24.58,-38.57z"/>
   <path class="fil0" d="M63.72 705.9c0,-10.52 4.93,-35.66 8.07,-40.76 3.65,-5.96 6.6,-22.94 23.96,-25.23 9.69,43.61 6.68,28.38 1.74,77.3 -1.73,17.09 2.52,7.28 -4.34,20.58 -4.91,9.53 -1.08,8.33 -10.87,13.86l-8.16 -6.04c-10.15,-10.53 -10.4,-26.62 -10.4,-39.71zm80.71 57.57c-11.86,-2.74 -1.9,2.93 -10.4,2.18 -7.08,-0.63 -18.81,-14.64 -19.95,-24.29 -2.09,-17.66 -4.45,-37.22 -3.71,-55.11 1.71,-40.71 17.33,-24.15 8.34,-45.66 -10.48,-25.08 -32,-21.41 -43.53,-6.18 -1.29,1.7 -1.85,2.82 -3.23,4.64 -15.82,20.87 -21.45,47.26 -21.6,74.74 -0.09,16.03 1.05,36.42 14.77,46.04 16.98,11.9 24.33,2.46 29.61,-2.04 3.02,-2.57 4.66,-4.45 8.62,-5.61l6.81 17.79c8.7,19.47 43.54,20.55 34.27,-6.5z"/>
   <path class="fil0" d="M1722.01 667.86c13.48,1.05 12.73,-15.79 30.14,-15.76 16.85,0.02 20.71,2.61 35.01,9.69 5.29,2.61 36.92,9.7 30.54,-6.61 -1.59,-4.05 -9.98,-7.88 -14.15,-8.79 -8.36,-1.81 -7.39,-3.27 -17.12,-4.75 -28.17,-4.28 -33.87,-33.96 -22.89,-57.16 1.85,-3.9 7.37,-10.43 9.77,-12.58 12.74,-11.43 35.37,4.82 43.26,15.78 18.19,25.3 -5.18,14.41 -7.6,23.96 -3.13,12.32 12.97,22.67 23.71,13.06 9.26,-8.27 6.85,-27.32 3.22,-35.34 -4.35,-9.6 -9.37,-20.24 -17.96,-26.7 -21.05,-15.83 -44.4,-15.91 -62.16,3.56 -7.23,7.92 -10.52,20.11 -13.09,31.49 -1.32,5.84 -1.15,15.24 0.3,20.26 1.31,4.56 5.41,12.89 5.42,16.97l-21.8 11.18c-8.2,5.58 -8.16,16.17 -4.6,21.74z"/>
   <path class="fil0" d="M1839.56 1132.39c-0.24,-2.28 1.97,-26.27 2.56,-30.76 1.21,-9.2 -2.02,-21.89 -12.52,-17.54 -9.78,4.06 -7.67,15.01 -7.5,26.56l0.31 62.58c0.18,2.53 -1.09,24.55 11.09,23.1 2.18,-0.26 8.21,-4.83 9.81,-7.73l5.41 -11.71c2.39,-5.67 5.03,-23.04 7.31,-26.49 1.89,11.11 3.39,30.63 11.66,37.95 11.7,10.37 33.41,-2.62 23.98,-14.71 -5.1,-6.53 -7.54,1.41 -13.28,-11.75 -8.05,-18.49 -0.03,-53.25 -4.76,-68.84l-19.71 6.3c-2.81,6.64 -5.68,19.02 -6.02,25.67l-8.34 7.37z"/>
   <path class="fil0" d="M302.35 1170.51c-6.52,-0.98 -10.34,1.51 -13.56,-6.26 -1.96,-4.72 -3.03,-55.54 -2.77,-61.53 0.29,-6.69 0.61,-11.8 -6.95,-12.97 -16.3,-2.52 -23.11,35.32 -23.5,40.77 -6.23,-16.91 -1.22,-31.15 -1.97,-45.41l-14.27 -0.2c-6.18,2.98 -5.24,11.71 -5.24,17.86l0 42.05c-0.04,17.06 -2.57,41.45 8.49,52.19 16.1,-11.24 10.33,-6.43 16.08,-17.71 5.49,-10.79 1.18,-14.56 8.88,-24.53l14.02 35.16c2.06,2.6 27.69,6.49 20.79,-19.42z"/>
   <path class="fil0" d="M696.48 1090.82c-8.08,6.01 -21.79,-1.16 -24.3,10.9 -1.23,5.92 1.9,11.01 5.24,12.93 2.66,1.54 4.3,1.4 7.07,1.78 2.02,0.28 6.57,0.6 7.45,2.56 1.54,3.47 -0.74,46.75 4.37,64.83 2.16,7.65 9.3,14.96 19.17,14.45 5.9,-0.3 7.31,-2.48 10.32,-6.43 2.7,-3.56 5.24,-5.81 3.47,-12.11l-17.3 -7.5 2.99 -56.32 15.96 -12.1c0.34,-3.9 -1.24,-6.81 -3.84,-8.56 -10.06,-6.79 -7.58,5.86 -9.41,-41.24 -11.66,-1.77 -14.31,-0.49 -18.85,9.58 -3.95,8.75 0.12,19.02 -2.34,27.23z"/>
   <path class="fil0" d="M1738.43 1064.09c-4.57,12.64 1.61,21.31 -6.31,30.33l-16.11 0.2c-4.02,-0.09 -7.7,21.42 18.69,16.15l1.02 72.89c3.13,8.64 9.54,15.35 20.23,14.56 8.24,-0.61 13.87,-9.69 11.14,-21.07l-14.19 -1.6 0.19 -68.1 16.96 0.4c2.49,-10.03 -2.37,-14.49 -11.56,-15.05l-0.17 -20.57c0.96,-11.59 -0.84,-10.58 -2.15,-17.96 -10.54,-1.91 -14.49,0.35 -17.74,9.82z"/>
   <path class="fil0" d="M702.21 628.37c0,-10.64 1.18,-22.29 14.31,-25.27 16.09,-3.67 30.87,3.79 33.61,-5.75 5.55,-19.33 -35.27,-32.97 -54.76,2.91 -7.51,13.82 -24.2,-3.47 -9.64,38.27 3.13,8.98 9.32,18.45 10.47,29.25 1.06,10.11 -0.13,26.49 3.64,34.15l14.22 -10.48c0,-8.24 -11.85,-28.61 -11.85,-63.08z"/>
   <path class="fil0" d="M407.71 1170c0.44,1.71 0.57,14.62 8.31,22.09 9.45,9.12 14.11,2.07 21.04,-2.53 -3.91,-21.04 -2.46,-11.76 -9.72,-18.03l-0.28 -44.55c2.83,-18.49 8.17,-28.89 -5.34,-36.72 -14.32,0.39 -15.04,17.86 -15.06,32.22 -0.01,13.83 -1.11,34.72 1.05,47.52z"/>
   <path class="fil0" d="M1802.16 1114.6c5.2,-35.13 -19.7,-30 -22.21,-2.6 -1.4,15.34 -0.97,54.33 2.18,66.03 5.05,18.76 23.54,25.7 26.75,9.94 3.1,-15.19 -5.87,-10.5 -8.45,-17.59 -3.74,-10.3 0.29,-46.09 1.73,-55.78z"/>
   <path class="fil0" d="M2148.1 748.88c5.49,3.36 7.14,8.12 21.12,0.92 5.29,-2.73 9.89,-14.37 7.29,-21.38 -7.61,-20.55 -28.58,5.34 -28.41,20.46z"/>
   <path class="fil0" d="M1804.66 1050.8c-11.34,-10.61 -32,4.08 -23.21,18.26 4.25,6.85 16.5,9.28 23.07,3.89 5.98,-4.92 5.48,-17.15 0.14,-22.15z"/>
   <path class="fil0" d="M2147.26 784.15c-14.94,5.92 -22.32,36.59 -3.31,29.83 20.98,-7.47 21.58,-37.08 3.31,-29.83z"/>
   <path class="fil0" d="M2198.56 593.66c-5.57,1.99 -9.61,9.01 -10.87,17 -1.45,9.19 9.2,9.56 17.39,7.95 15.64,-3.07 15.77,-32.93 -6.52,-24.95z"/>
   <path class="fil0" d="M406.67 1062.03c10.18,10.06 10.81,13.12 17.22,13.12 14.24,0 12.85,-19 6.13,-24.49 -10.51,-8.6 -23.35,-2.1 -23.35,11.37z"/>
   <path class="fil0" d="M650.04 223.28c-7.43,1.98 -10.09,7.78 -7.3,16.72 4.13,13.19 35.71,6.15 25.49,-10.98 -2.67,-4.47 -11.5,-7.53 -18.19,-5.74z"/>
   <path class="fil0" d="M2221.5 520.27c17.98,3.29 21.01,-5.33 19.98,-19.5 -0.39,-5.51 -1.52,-6.75 -5.1,-8.53 -9.65,-4.79 -11.17,2.68 -13.87,8.6 -2.99,6.53 -6.2,10.77 -1.01,19.43z"/>
   <path class="fil0" d="M2217.55 545.29c-17.19,5.19 -20.08,23.69 -4.99,27.78 17.49,4.73 17.26,-31.49 4.99,-27.78z"/>
   <path class="fil0" d="M2179.25 688.47c19.24,0 22.37,-28.15 6.92,-25.66 -14.65,2.36 -22.79,25.66 -6.92,25.66z"/>
   <path class="fil0" d="M2266.52 819.67c-21.84,-5.01 -30.26,13.09 -22.22,19.58 1.96,1.58 7.66,3.29 9.95,3.2 3.76,-0.14 5.71,-2.3 8.31,-4.63 6.67,-5.98 5.7,-10.44 3.96,-18.15z"/>
   <path class="fil0" d="M2269.99 591.23c-7.37,2.19 -11.87,4.97 -8.01,13.34 3.04,6.59 7.16,8.46 15.55,6.45 17.49,-4.18 11.05,-25.31 -7.54,-19.79z"/>
   <path class="fil0" d="M2223.34 935.89c-15.81,5.3 -3.38,26.17 12.01,20.82 11.83,-4.11 5.72,-26.77 -12.01,-20.82z"/>
   <path class="fil0" d="M2281.39 687.5c0,-8 -8.68,-14.13 -14.11,-18.7 -9.71,5.62 -11.6,11.88 -3.75,22.49 10.84,14.64 17.86,0.65 17.86,-3.79z"/>
   <path class="fil0" d="M1991.6 1011.05c13.58,-9.27 0.15,-17.93 -12.07,-19.17 -19.26,3.09 -3.73,29.94 12.07,19.17z"/>
   <path class="fil0" d="M609.98 274.33c10,-12.52 2.75,-24.18 -16.12,-19.76 -6.01,1.41 -6.27,10.32 -2.05,15.35 2.87,3.41 12.2,4.18 18.17,4.41z"/>
   <path class="fil0" d="M2276.59 909.78c-2.28,10.53 8.67,18.18 19.95,13.29 22.7,-9.83 -16.38,-29.76 -19.95,-13.29z"/>
   <path class="fil0" d="M2058.55 1140.86c-2.82,13.3 7.52,25.62 20.67,19.57 2.93,-10.27 2.09,-12.42 -4.1,-17.92 -6.14,-5.45 -8.97,-6.37 -16.57,-1.65z"/>
   <path class="fil0" d="M2277.1 1168.48c2.52,13.63 27.55,12.65 24.73,-1.13 -2.17,-10.58 -28,-16.57 -24.73,1.13z"/>
   <path class="fil0" d="M693.3 281.77l2.25 -14.79c-5.06,-5.99 -22.08,-7.66 -24.29,0.31 -1.25,4.53 0.99,11.18 4.59,13.16 4.15,2.28 12.53,1.35 17.45,1.32z"/>
   <path class="fil0" d="M2320.29 1024.4c6.68,-11.21 1.28,-17.08 -12.2,-17.1 -15.89,-0.03 -20.16,18.43 12.2,17.1z"/>
   <path class="fil0" d="M2106.98 1029.97c13.55,0 12.8,-9.63 4.92,-18.85 -2.7,-3.15 -8.15,-5.92 -12.81,-3.09 -8.4,5.1 -1.23,21.94 7.89,21.94z"/>
   <path class="fil0" d="M2224.1 1064.47c-0.98,7.94 0.3,14.6 4.06,18.29 17.19,16.87 14.6,-4.15 13.19,-14.48 -4.29,-5.18 -10.35,-7.5 -17.25,-3.81z"/>
   <path class="fil0" d="M2252.8 761.37l9.22 9.33c12.26,0 10.41,-8.37 5.42,-16.31 -6.21,-9.88 -29.21,-7.75 -14.64,6.98z"/>
   <path class="fil0" d="M1364.64 241.05l12.35 -8.24c-1.55,-4.58 -3.72,-6.9 -7.11,-8.01 -3.45,-1.15 -4.06,0.02 -10.44,2.84 -9.93,4.39 -6.27,13.41 5.2,13.41z"/>
   <path class="fil0" d="M191.44 225.03c0.85,7.18 3.54,10.18 11.69,10.06 7.83,-0.1 11.57,-2.3 11.7,-10.39 -8.49,-4.05 -15.24,-5.1 -23.39,0.33z"/>
   <path class="fil0" d="M1834.1 676.59c11.1,2.62 10.25,-1.81 10.68,-11.02 0.38,-8.17 -2.04,-10.59 -10.78,-9.1 -4.12,7.17 -4.13,12.67 0.1,20.12z"/>
   <path class="fil0" d="M219.69 258.67c-5.15,-17.23 -18.81,-7.91 -20.43,-3.35 -2.46,6.96 8.09,15.65 20.43,3.35z"/>
   <path class="fil0" d="M1263.47 251.42l9.43 -1.29 2 -9.27c-7.55,-6.73 -9.41,-7.19 -15.23,-2.64 -5.04,3.93 -8.56,13.2 3.8,13.2z"/>
   <path class="fil0" d="M1316.02 260.59c4.97,0.63 7.55,-0.16 10.89,-2.44 5.42,-3.7 3.45,-1.71 5.62,-7.7 -7.29,-12.8 -26.02,-2.7 -16.51,10.14z"/>
   <path class="fil0" d="M143.46 243.84l15.03 3.14 7.45 -6.28c-0.02,-5.85 -6.53,-6.62 -12.73,-6.59 -8.18,0.04 -11.04,1.07 -9.75,9.73z"/>
   <path class="fil0" d="M1967.5 442.12c-5.44,1.63 -9.71,2.82 -9.26,10.07 0.35,5.73 4.66,8.01 9.39,8.87 5.45,-5.05 4.59,-13.18 -0.13,-18.94z"/>
   <path class="fil0" d="M245.49 251.01l20.3 -1.11 -10.07 -10.33c-11.4,0 -11.39,0.29 -10.23,11.44z"/>
   <path class="fil0" d="M1435.78 755.65c-5.5,-1.03 -10.46,-3.44 -10.36,6.51 0.05,5.22 -0.03,6.88 3.81,8.04 10.3,3.12 8.24,-9.02 6.55,-14.55z"/>
   <path class="fil0" d="M833.83 1160.35c0,0 0,0 0,0z"/>
   <path class="fil0" d="M994.62 707c0,0 0,0 0,0z"/>
   <path class="fil0" d="M882.46 1110.71c-1.89,-4.2 -3.43,-11.58 -6,-16.89 -2.58,-5.32 -6.18,-8.57 -11.15,-9.18 -4.97,-0.59 -11.31,1.46 -15.09,4.55 -3.77,3.09 -4.97,7.2 -4.03,12.26 0.95,5.06 4.03,11.06 11.66,17.83 7.63,6.77 19.81,14.32 27.44,20.15 7.63,5.83 10.71,9.94 12.34,14.91 1.63,4.98 1.8,10.81 -0.43,16.55 -2.23,5.74 -6.86,11.4 -13.11,15.52 -6.26,4.11 -14.15,6.68 -21.26,7.54 -7.12,0.86 -13.46,0 -18.69,-2.23 -5.23,-2.23 -9.35,-5.83 -12.52,-9.6 -3.17,-3.77 -5.4,-7.71 -5.83,-11.74 -0.43,-4.03 0.94,-8.15 2.58,-9.83 1.64,-1.69 3.55,-0.95 6.89,1.71 3.35,2.66 8.13,7.23 12.57,10.29 4.45,3.06 8.56,4.6 13.37,4.34 4.8,-0.26 10.28,-2.31 13.97,-5.06 3.69,-2.74 5.57,-6.17 5.57,-9.34 0,-3.17 -1.88,-6.09 -7.8,-10.98 -5.91,-4.88 -15.86,-11.74 -22.89,-16.88 -7.03,-5.15 -11.14,-8.58 -14.57,-11.66 -3.43,-3.09 -6.17,-5.83 -7.72,-10.98 -1.54,-5.14 -1.88,-12.68 -0.94,-18.51 0.94,-5.83 3.17,-9.95 6.6,-13.81 3.43,-3.86 8.06,-7.45 13.03,-9.68 4.97,-2.23 10.29,-3.09 16.12,-3.43 5.83,-0.35 12.17,-0.17 17.57,1.2 5.4,1.37 9.86,3.94 12.35,8.06 2.48,4.11 3,9.77 3.09,15.51 0.08,5.75 -0.26,11.58 -0.95,15.95 -0.68,4.37 -1.71,7.29 -2.74,8.66 -1.03,1.37 -2.06,1.2 -3.69,0.6 -1.63,-0.6 -3.86,-1.63 -5.74,-5.83z"/>
   <path class="fil0" d="M963.82 700.45c5.23,-2.02 14.49,-5.19 22.67,-7.16 8.19,-1.97 15.31,-2.74 21.61,-2.57 6.3,0.17 11.78,1.28 16.37,3.08 4.59,1.8 8.27,4.29 12.26,7.72 3.99,3.43 8.27,7.8 10.72,12.3 2.44,4.5 3.04,9.13 3.25,13.63 0.22,4.5 0.05,8.88 -1.62,13.21 -1.68,4.32 -4.85,8.61 -9.73,11.48 -4.89,2.87 -11.49,4.33 -19.55,5.1 -8.06,0.78 -17.58,0.86 -26.41,-0.47 -8.83,-1.33 -16.97,-4.07 -22.41,-6.56 -5.45,-2.48 -8.19,-4.71 -9.22,-7.46 -1.03,-2.74 -0.34,-6 1.46,-8.14 1.8,-2.14 4.71,-3.17 8.65,-3.38 3.95,-0.22 8.92,0.38 13.21,1.71 4.28,1.33 7.88,3.39 10.37,5.23 2.49,1.84 3.86,3.47 6.35,4.71 2.48,1.25 6.08,2.1 9.68,2.58 3.6,0.47 7.2,0.55 11.02,-0.05 3.81,-0.6 7.84,-1.88 10.72,-3.77 2.87,-1.89 4.58,-4.37 5.48,-7.67 0.9,-3.3 0.99,-7.42 -0.13,-11.4 -1.11,-3.99 -3.43,-7.85 -6,-11.06 -2.57,-3.22 -5.4,-5.79 -9.9,-7.72 -4.5,-1.93 -10.67,-3.21 -17.15,-3.09 -6.47,0.13 -13.24,1.68 -17.44,3.82 -4.2,2.14 -5.83,4.89 -7.63,6.86 -1.8,1.97 -3.77,3.17 -7.46,3.81 -3.69,0.65 -9.09,0.73 -13.03,-0.08 -3.94,-0.82 -6.43,-2.53 -6.82,-4.5 -0.38,-1.98 1.33,-4.2 2.79,-5.75 1.46,-1.54 2.66,-2.4 7.89,-4.41z"/>
  </g>
 </g>
</svg>
