<svg xmlns="http://www.w3.org/2000/svg" viewBox="0 0 17.4 17.4"><defs><style>.cls-1{fill-rule:evenodd;}</style></defs><title>Recurso 2</title><g id="Capa_2" data-name="Capa 2"><g id="Capa_1-2" data-name="Capa 1"><path class="cls-1" d="M8.74,5.27c0-.33.1-.63.15-.93l.18-1c0-.16.1-.22.26-.19l4.55.75c.2,0,.24.11.21.31l-.75,4.51c0,.2-.1.25-.31.21l-1.69-.28h-.09v1.56a5.21,5.21,0,0,1,.75.36,2,2,0,1,1-3.06,2.37.15.15,0,0,0-.17-.12H6.16c-.28,0-.32,0-.32-.31V10a.37.37,0,0,0-.08-.22L3.41,6.71c-.16-.2-.15-.26,0-.42l3.6-2.77c.17-.13.24-.12.37.06L8.62,5.12l.12.15Zm.12,6.59h0s0,0,0-.06a2,2,0,0,1,1.36-1.5c.08,0,.08-.08.08-.15V7.69a.31.31,0,0,0,0-.1H6.78v4.27ZM13,4.72h0l-3.1-.51C9.77,5,9.64,5.83,9.5,6.65H11c.18,0,.24.06.24.25v.71l1.25.21c.18-1,.35-2.06.52-3.1Zm-5.92,0h0L4.6,6.65,5.81,8.23h0V6.92c0-.21.06-.27.27-.27h2.4l0,0L7.09,4.73Zm3.78,9.18h0A1.68,1.68,0,1,0,9.2,12.24a1.68,1.68,0,0,0,1.67,1.67ZM9.41,3.51h0c-.17,1-.35,2.09-.52,3.13h.23s0,0,0,0l.42-2.51c0-.27.09-.31.36-.26l3.2.53c.29,0,.32.09.27.39-.11.68-.22,1.36-.34,2-.06.4-.13.81-.2,1.21,0,.19-.09.24-.29.21l-.27,0-1-.18v.24L13,8.52c.24-1.45.48-2.87.72-4.3l-4.3-.71Zm-.59,8.73H6.69c-.24,0-.29-.05-.29-.29V7.49c0-.24,0-.28.29-.28H10.4c.24,0,.29,0,.29.28V10.2l.17,0V7H6.23v5.38h2.6c0-.05,0-.1,0-.17ZM8.59,6.08h0a.44.44,0,0,0-.05-.47C8.12,5.09,7.71,4.55,7.3,4a1.13,1.13,0,0,0-.1-.13C6,4.77,4.9,5.66,3.75,6.54l2.08,2.7a.63.63,0,0,0-.13-.55c-.49-.62-1-1.26-1.46-1.89-.13-.18-.13-.25,0-.38L7,4.37c.17-.13.24-.11.37.06l.82,1.06Z"/><path class="cls-1" d="M11.24,12.21c.17.15.31.24.42.35a.35.35,0,1,1-.48.49L11,12.88l-.21-.21c-.12.14-.23.29-.35.41a.34.34,0,1,1-.48-.49c.11-.12.24-.23.41-.4a4.53,4.53,0,0,1-.39-.34.34.34,0,0,1,0-.52.33.33,0,0,1,.51,0,4.64,4.64,0,0,1,.37.43c.16-.19.27-.33.39-.46a.33.33,0,0,1,.48,0,.33.33,0,0,1,0,.5A5.38,5.38,0,0,1,11.24,12.21Z"/><path class="cls-1" d="M2.4,0H15a2.41,2.41,0,0,1,2.4,2.4V15A2.41,2.41,0,0,1,15,17.4H2.4A2.41,2.41,0,0,1,0,15V2.4A2.41,2.41,0,0,1,2.4,0Zm0,.48A1.92,1.92,0,0,0,.48,2.4V15A1.92,1.92,0,0,0,2.4,16.92H15A1.92,1.92,0,0,0,16.92,15V2.4A1.92,1.92,0,0,0,15,.48Z"/></g></g></svg>