<svg xmlns="http://www.w3.org/2000/svg" viewBox="0 0 17.4 17.4"><defs><style>.cls-1{fill-rule:evenodd;}</style></defs><title>Recurso 7</title><g id="Capa_2" data-name="Capa 2"><g id="Capa_1-2" data-name="Capa 1"><path class="cls-1" d="M8.7,9.24a.93.93,0,1,1-.92.92.92.92,0,0,1,.92-.92Zm0,.1a.83.83,0,1,0,.82.82A.82.82,0,0,0,8.7,9.34Z"/><path class="cls-1" d="M14.1,7.12c-.06.06-.11.13-.17.18a.83.83,0,0,0-.33.51,9.51,9.51,0,0,1-.27,1A1.72,1.72,0,0,1,11.8,10a2.65,2.65,0,0,1-1.12-.1,2.23,2.23,0,0,1-1.22-1c-.13-.24-.23-.5-.35-.76a.58.58,0,0,1,0-.48.19.19,0,0,0,0-.2.51.51,0,0,0-.79,0,.13.13,0,0,0,0,.13.76.76,0,0,1,0,.61,3.46,3.46,0,0,1-.79,1.24A2,2,0,0,1,6.2,10a2.56,2.56,0,0,1-1.07-.1A1.7,1.7,0,0,1,4,8.61c-.07-.26-.14-.53-.19-.8a.72.72,0,0,0-.35-.52C3.31,7.21,3.3,7.1,3.3,7s.08-.16.18-.21A3.94,3.94,0,0,1,4.74,6.4,10.36,10.36,0,0,1,6,6.32a3.57,3.57,0,0,1,2,.56.34.34,0,0,0,.28,0,3,3,0,0,1,.95,0,.42.42,0,0,0,.31,0,3.5,3.5,0,0,1,1.71-.53,6.41,6.41,0,0,1,2.46.31l.23.1a1.84,1.84,0,0,1,.22.17v.21Zm-.78.52h0c0-.1,0-.27-.08-.44a.64.64,0,0,0-.45-.49,3.77,3.77,0,0,0-3,.29.67.67,0,0,0-.32.43,1.19,1.19,0,0,0,0,.65,2.38,2.38,0,0,0,.73,1.2,1.37,1.37,0,0,0,.83.45,6.12,6.12,0,0,0,.74,0,1.41,1.41,0,0,0,1.13-.56,2.65,2.65,0,0,0,.47-1.57ZM4.07,7.7h0a3.12,3.12,0,0,0,.21,1,1.46,1.46,0,0,0,1.11,1,4,4,0,0,0,.85,0,1.25,1.25,0,0,0,.7-.23A2.41,2.41,0,0,0,8,7.94a.87.87,0,0,0-.51-1,3.74,3.74,0,0,0-2.88-.21.67.67,0,0,0-.46.49A4,4,0,0,0,4.07,7.7Z"/><path class="cls-1" d="M8.91,10.17a1.93,1.93,0,0,1,.2.17c.1.09.1.19,0,.26s-.16.07-.25,0l-.09-.09-.11-.1c-.06.07-.11.14-.17.2a.16.16,0,0,1-.24,0,.17.17,0,0,1,0-.25l.21-.19a2.61,2.61,0,0,0-.2-.17.17.17,0,1,1,.24-.25A2.38,2.38,0,0,1,8.7,10a2.92,2.92,0,0,1,.19-.23.16.16,0,0,1,.24,0,.16.16,0,0,1,0,.24Z"/><path class="cls-1" d="M2.4,0H15a2.41,2.41,0,0,1,2.4,2.4V15A2.41,2.41,0,0,1,15,17.4H2.4A2.41,2.41,0,0,1,0,15V2.4A2.41,2.41,0,0,1,2.4,0Zm0,.48A1.92,1.92,0,0,0,.48,2.4V15A1.92,1.92,0,0,0,2.4,16.92H15A1.92,1.92,0,0,0,16.92,15V2.4A1.92,1.92,0,0,0,15,.48Z"/></g></g></svg>