<svg xmlns="http://www.w3.org/2000/svg" viewBox="0 0 17.4 17.4"><defs><style>.cls-1{fill-rule:evenodd;}</style></defs><title>Recurso 4</title><g id="Capa_2" data-name="Capa 2"><g id="Capa_1-2" data-name="Capa 1"><path class="cls-1" d="M10.82,8.27l-.12.13a.56.56,0,0,0-.23.35,6,6,0,0,1-.19.73,1.19,1.19,0,0,1-1.06.79,1.92,1.92,0,0,1-.79-.07,1.51,1.51,0,0,1-.84-.73A4.9,4.9,0,0,1,7.35,9a.4.4,0,0,1,0-.34.11.11,0,0,0,0-.13.35.35,0,0,0-.55,0,.15.15,0,0,0,0,.09.48.48,0,0,1,0,.42,2.24,2.24,0,0,1-.54.87,1.39,1.39,0,0,1-.88.39,1.88,1.88,0,0,1-.75-.07,1.22,1.22,0,0,1-.8-.89c0-.18-.09-.37-.13-.56a.48.48,0,0,0-.24-.36c-.1-.06-.1-.14-.1-.23s.06-.11.12-.14a2.76,2.76,0,0,1,.88-.25,6.36,6.36,0,0,1,.87-.06,2.53,2.53,0,0,1,1.36.39.26.26,0,0,0,.19,0,1.89,1.89,0,0,1,.67,0,.32.32,0,0,0,.21,0,2.44,2.44,0,0,1,1.19-.37,4.36,4.36,0,0,1,1.72.22l.16.07a1.58,1.58,0,0,1,.15.12v.14Zm-.55.36h0a2.32,2.32,0,0,0,0-.3A.43.43,0,0,0,9.9,8a2.6,2.6,0,0,0-2.11.2.5.5,0,0,0-.23.29,1,1,0,0,0,0,.46,1.67,1.67,0,0,0,.51.84,1,1,0,0,0,.58.31l.51,0a1,1,0,0,0,.79-.4,1.85,1.85,0,0,0,.32-1.09Zm-6.44,0h0A2.63,2.63,0,0,0,4,9.41a1,1,0,0,0,.78.68,2.89,2.89,0,0,0,.59,0A1,1,0,0,0,5.84,10a1.7,1.7,0,0,0,.73-1.11.61.61,0,0,0-.35-.71,2.65,2.65,0,0,0-2-.14.46.46,0,0,0-.32.34C3.86,8.44,3.85,8.56,3.83,8.67Z"/><path class="cls-1" d="M14.1,5.73a1.21,1.21,0,0,1-.16.16.78.78,0,0,0-.31.48,8.28,8.28,0,0,1-.25,1A1.61,1.61,0,0,1,12,8.41a2.39,2.39,0,0,1-1-.09h0V8.1l.26.07a5.31,5.31,0,0,0,.69,0,1.34,1.34,0,0,0,1.06-.52,2.5,2.5,0,0,0,.44-1.47h0c0-.1,0-.26-.07-.41a.63.63,0,0,0-.43-.46,3.5,3.5,0,0,0-1.51-.16A3.71,3.71,0,0,0,10,5.61a.64.64,0,0,0-.3.4,1.26,1.26,0,0,0,0,.61,2.39,2.39,0,0,0,.68,1.13l.08.07A4.05,4.05,0,0,0,10,7.7a3.27,3.27,0,0,1-.25-.36c-.13-.23-.22-.47-.33-.71a.54.54,0,0,1,0-.45A.16.16,0,0,0,9.4,6a.47.47,0,0,0-.74,0,.19.19,0,0,0,0,.13.68.68,0,0,1,0,.56A3.08,3.08,0,0,1,8,7.78,2.58,2.58,0,0,0,7.55,8,.25.25,0,0,1,7.4,8H7.34L7.4,8a2.29,2.29,0,0,0,1-1.49.82.82,0,0,0-.47-1,3.52,3.52,0,0,0-2.7-.2.61.61,0,0,0-.43.46c0,.15,0,.31-.08.46h0a3.23,3.23,0,0,0,.2,1,3,3,0,0,0,.19.36H4.83a2,2,0,0,1-.2-.5c-.07-.25-.13-.5-.18-.76a.68.68,0,0,0-.32-.48A.29.29,0,0,1,4,5.58a.24.24,0,0,1,.17-.2,3.78,3.78,0,0,1,1.18-.33A9.2,9.2,0,0,1,6.51,5a3.35,3.35,0,0,1,1.82.52.37.37,0,0,0,.27,0,2.66,2.66,0,0,1,.89,0,.43.43,0,0,0,.29,0,3.24,3.24,0,0,1,1.6-.5,5.8,5.8,0,0,1,2.3.3,1,1,0,0,1,.22.09,1.4,1.4,0,0,1,.2.16Z"/><path class="cls-1" d="M12.44,9.85l.1.1c.1.17.19.35.29.53s.05.13-.06.19l-1.86,1c-.19.1-.21.17-.1.36l.12.22a.17.17,0,0,1,0,.12.11.11,0,0,1-.11,0L9.5,12.05,9.42,12v-.1l0-.09c.12-.4.23-.8.35-1.19a.1.1,0,0,1,.19,0l.14.25a.19.19,0,0,0,.3.09l2-1.09Z"/><path class="cls-1" d="M2.4,0H15a2.41,2.41,0,0,1,2.4,2.4V15A2.41,2.41,0,0,1,15,17.4H2.4A2.41,2.41,0,0,1,0,15V2.4A2.41,2.41,0,0,1,2.4,0Zm0,.48A1.92,1.92,0,0,0,.48,2.4V15A1.92,1.92,0,0,0,2.4,16.92H15A1.92,1.92,0,0,0,16.92,15V2.4A1.92,1.92,0,0,0,15,.48Z"/></g></g></svg>