<svg xmlns="http://www.w3.org/2000/svg" viewBox="0 0 17.4 17.4"><defs><style>.cls-1{fill-rule:evenodd;}</style></defs><title>Recurso 5</title><g id="Capa_2" data-name="Capa 2"><g id="Capa_1-2" data-name="Capa 1"><path class="cls-1" d="M6.25,6.27a2.9,2.9,0,0,0-2,.79A2.86,2.86,0,0,0,3.37,8.6a3,3,0,0,0,1.27,3.1,2.93,2.93,0,0,0,3,.1l-.47-.46H7.13a2.46,2.46,0,0,1-.59.16,2.33,2.33,0,0,1-1-.09,2.27,2.27,0,0,1-1.33-1.1A2.3,2.3,0,0,1,4,9.16,2.28,2.28,0,0,1,6.25,6.93V8l0,0L7.63,6.6,6.25,5.23Z"/><path class="cls-1" d="M7.14,8a1,1,0,0,0,.07.15.58.58,0,0,1,.09.4,6.2,6.2,0,0,0-.08.74,1.18,1.18,0,0,0,.71,1.09,1.78,1.78,0,0,0,.74.2,1.49,1.49,0,0,0,1-.38,5,5,0,0,0,.4-.4.43.43,0,0,0,.12-.31c0-.05,0-.08.07-.11a.33.33,0,0,1,.49.21.1.1,0,0,1,0,.09.46.46,0,0,0-.12.39,2.28,2.28,0,0,0,.2,1,1.35,1.35,0,0,0,.68.65,1.6,1.6,0,0,0,.71.19,1.19,1.19,0,0,0,1-.54l.31-.47a.46.46,0,0,1,.34-.25c.11,0,.14-.09.17-.18s0-.12-.06-.17a2.85,2.85,0,0,0-.72-.53c-.26-.13-.52-.25-.78-.35a2.33,2.33,0,0,0-1.38-.1.29.29,0,0,1-.19,0A2.38,2.38,0,0,0,10.35,9a.27.27,0,0,1-.19-.1,2.38,2.38,0,0,0-1-.75,4.28,4.28,0,0,0-1.65-.38,1,1,0,0,0-.17,0l-.18.06L7.14,8Zm.38.51h0l.15-.26A.47.47,0,0,1,8.08,8a2.66,2.66,0,0,1,1.07.28,2.6,2.6,0,0,1,.8.63.46.46,0,0,1,.11.35.89.89,0,0,1-.15.42,1.69,1.69,0,0,1-.75.6,1,1,0,0,1-.65.09A3.68,3.68,0,0,1,8,10.24a1,1,0,0,1-.59-.63,1.74,1.74,0,0,1,.07-1.12Zm5.91,2.24h0a2.32,2.32,0,0,1-.39.62,1,1,0,0,1-.94.37,2.55,2.55,0,0,1-.55-.19.77.77,0,0,1-.4-.31,1.65,1.65,0,0,1-.3-1.27.6.6,0,0,1,.57-.53,2.55,2.55,0,0,1,1.9.55.44.44,0,0,1,.17.42A3.43,3.43,0,0,1,13.43,10.73Z"/><path class="cls-1" d="M2.4,0H15a2.41,2.41,0,0,1,2.4,2.4V15A2.41,2.41,0,0,1,15,17.4H2.4A2.41,2.41,0,0,1,0,15V2.4A2.41,2.41,0,0,1,2.4,0Zm0,.48A1.92,1.92,0,0,0,.48,2.4V15A1.92,1.92,0,0,0,2.4,16.92H15A1.92,1.92,0,0,0,16.92,15V2.4A1.92,1.92,0,0,0,15,.48Z"/></g></g></svg>