<svg xmlns="http://www.w3.org/2000/svg" viewBox="0 0 17.4 17.4"><defs><style>.cls-1{fill-rule:evenodd;}</style></defs><title>Recurso 1</title><g id="Capa_2" data-name="Capa 2"><g id="Capa_1-2" data-name="Capa 1"><path class="cls-1" d="M8.74,5.27c0-.33.1-.63.15-.93l.18-1c0-.16.1-.22.26-.19l4.55.75c.2,0,.24.11.21.31l-.75,4.51c0,.2-.1.25-.31.21l-1.69-.28h-.09v1.56a5.21,5.21,0,0,1,.75.36,2,2,0,1,1-3.06,2.37.15.15,0,0,0-.17-.12c-.87,0-1.74,0-2.61,0-.28,0-.32,0-.32-.31V10a.37.37,0,0,0-.08-.22L3.41,6.71c-.16-.2-.15-.26,0-.42l3.6-2.77c.17-.13.24-.12.37.06L8.62,5.12l.12.15Zm.12,6.59h0s0,0,0-.06a2,2,0,0,1,1.36-1.5c.08,0,.08-.08.08-.15V7.69a.31.31,0,0,0,0-.1H6.78v4.27ZM13,4.72h0l-3.1-.51C9.77,5,9.64,5.83,9.5,6.65H11c.18,0,.24.06.24.25v.71l1.25.21c.18-1,.35-2.06.52-3.1Zm-5.92,0h0L4.6,6.65,5.81,8.23h0V6.92c0-.21.06-.27.27-.27h2.4l0,0L7.09,4.73Zm3.78,9.18h0A1.68,1.68,0,1,0,9.2,12.24a1.68,1.68,0,0,0,1.67,1.67ZM9.41,3.51h0c-.17,1-.35,2.09-.52,3.13h.23s0,0,0,0l.42-2.51c0-.27.09-.31.36-.26l3.2.53c.29,0,.32.09.27.39-.11.68-.22,1.36-.34,2-.06.4-.13.81-.2,1.21,0,.19-.09.24-.29.21l-.27,0-1-.18v.24L13,8.52c.24-1.45.48-2.87.72-4.3l-4.3-.71Zm-.59,8.73H6.69c-.24,0-.29-.05-.29-.29V7.49c0-.24,0-.28.29-.28H10.4c.24,0,.29,0,.29.28V10.2l.17,0V7H6.23v5.38h2.6c0-.05,0-.1,0-.17ZM8.59,6.08h0a.44.44,0,0,0-.05-.47C8.12,5.09,7.71,4.55,7.3,4a1.13,1.13,0,0,0-.1-.13C6,4.77,4.9,5.66,3.75,6.54l2.08,2.7a.63.63,0,0,0-.13-.55c-.49-.62-1-1.26-1.46-1.89-.13-.18-.13-.25,0-.38L7,4.37c.17-.13.24-.11.37.06l.82,1.06Z"/><path class="cls-1" d="M4.58,10.84,4.8,11c.1.1.11.2,0,.28a.18.18,0,0,1-.28,0l-.09-.09-.12-.11-.18.22A.19.19,0,1,1,3.89,11l.22-.21-.21-.18a.18.18,0,0,1,0-.28.18.18,0,0,1,.27,0,2.54,2.54,0,0,1,.2.23l.21-.24a.18.18,0,0,1,.26,0,.18.18,0,0,1,0,.27A3,3,0,0,1,4.58,10.84Z"/><path class="cls-1" d="M13.57,9.89a.19.19,0,0,1,.21.2.2.2,0,0,1-.21.21.2.2,0,0,1-.2-.21A.19.19,0,0,1,13.57,9.89Z"/><path class="cls-1" d="M5.56,4.16A.22.22,0,0,1,5.35,4a.21.21,0,0,1,.22-.21.2.2,0,0,1,.2.21A.22.22,0,0,1,5.56,4.16Z"/><path class="cls-1" d="M10.31,12.4l-.15,0a.56.56,0,0,1-.55-.34.55.55,0,0,1,.14-.63l.83-.62a.51.51,0,0,1,.61,0c.26.19.53.38.78.59a.53.53,0,0,1,.16.64.54.54,0,0,1-.58.33h-.12c0,.26,0,.52,0,.77a.54.54,0,0,1-.32.5.55.55,0,0,1-.58-.06.54.54,0,0,1-.22-.45V12.4Zm.75.21h0c0-.17,0-.35,0-.53a.28.28,0,0,1,.12-.19c.05,0,.14,0,.2,0s.08.05.13.08a.18.18,0,0,0,.25,0,.19.19,0,0,0,0-.27c-.24-.18-.48-.37-.73-.54a.24.24,0,0,0-.22,0c-.26.18-.51.37-.76.56a.18.18,0,0,0,.22.29s.06,0,.09-.06.16-.12.26-.06.11.14.11.24v1c0,.16.07.24.18.24s.18-.08.19-.23Z"/><path class="cls-1" d="M2.4,0H15a2.41,2.41,0,0,1,2.4,2.4V15A2.41,2.41,0,0,1,15,17.4H2.4A2.41,2.41,0,0,1,0,15V2.4A2.41,2.41,0,0,1,2.4,0Zm0,.48A1.92,1.92,0,0,0,.48,2.4V15A1.92,1.92,0,0,0,2.4,16.92H15A1.92,1.92,0,0,0,16.92,15V2.4A1.92,1.92,0,0,0,15,.48Z"/></g></g></svg>