<svg xmlns="http://www.w3.org/2000/svg" viewBox="-30 0 200.18 150.18"><defs><style>.cls-1{fill-rule:evenodd;}</style></defs><title>Recurso 8</title><g id="Capa_2" data-name="Capa 2"><g id="Capa_1-2" data-name="Capa 1"><path class="cls-1" d="M26.79,22.18a1.55,1.55,0,0,1-.38.44.88.88,0,0,1-.51.14,1.18,1.18,0,0,1-.59-.18l-.72-.39a7.27,7.27,0,0,0-.92-.39,3.91,3.91,0,0,0-1.18-.17,2.52,2.52,0,0,0-1.7.49,1.65,1.65,0,0,0-.56,1.31,1.26,1.26,0,0,0,.34.88,3,3,0,0,0,.88.6,9.42,9.42,0,0,0,1.25.46c.47.14.95.29,1.43.47a12.87,12.87,0,0,1,1.44.6,5.07,5.07,0,0,1,1.25.89,4.29,4.29,0,0,1,.88,1.32A4.74,4.74,0,0,1,28,30.52a6.05,6.05,0,0,1-.42,2.26,5.35,5.35,0,0,1-1.21,1.85,5.69,5.69,0,0,1-2,1.23,7.38,7.38,0,0,1-2.66.46,8.66,8.66,0,0,1-1.66-.17A10.15,10.15,0,0,1,17,35a6.86,6.86,0,0,1-1.21-.92L17,32.12a1,1,0,0,1,.89-.48,1.4,1.4,0,0,1,.73.22c.24.16.52.32.82.51a7,7,0,0,0,1.06.5,4.06,4.06,0,0,0,1.42.23,2.67,2.67,0,0,0,1.72-.49,1.86,1.86,0,0,0,.61-1.54,1.44,1.44,0,0,0-.34-1,2.46,2.46,0,0,0-.88-.63A8.08,8.08,0,0,0,21.76,29l-1.43-.42A11,11,0,0,1,18.9,28a4.74,4.74,0,0,1-1.24-.9,4.24,4.24,0,0,1-.88-1.39,5.45,5.45,0,0,1-.34-2.06,4.76,4.76,0,0,1,.4-1.92A4.92,4.92,0,0,1,18,20a5.75,5.75,0,0,1,1.89-1.16,6.75,6.75,0,0,1,2.55-.44,10.09,10.09,0,0,1,1.57.12,8,8,0,0,1,1.44.38,7.14,7.14,0,0,1,1.28.59,5.32,5.32,0,0,1,1.06.79l-1,1.86Zm-9.63-7.47a3.12,3.12,0,0,0,.56-.59c.57-1,1.12-2,1.67-3,.33-.61.29-.76-.33-1.1L8.46,4.16c-1-.57-1.15-1-.58-2,.23-.42.49-.83.68-1.27a.92.92,0,0,0,0-.71A.73.73,0,0,0,7.94,0C5.45.72,3,1.45.47,2.18A2.48,2.48,0,0,0,0,2.45V3a4.08,4.08,0,0,1,.22.54c.67,2.26,1.32,4.52,2,6.77a.87.87,0,0,0,.51.55c.15,0,.43-.23.56-.42.3-.46.55-1,.82-1.45a1.08,1.08,0,0,1,1.71-.48l11.23,6.19ZM21,108.94a2.93,2.93,0,0,1-2.21-.8,3.21,3.21,0,0,1-.78-2.32V98.37H16.59a.52.52,0,0,1-.33-.11.43.43,0,0,1-.13-.35v-.86l2-.25L18.61,93a.44.44,0,0,1,.16-.29.49.49,0,0,1,.34-.12h1.08v4.19h3.48v1.55H20.19v7.31a1.55,1.55,0,0,0,.37,1.14,1.3,1.3,0,0,0,1,.37,1.68,1.68,0,0,0,.58-.09,2.48,2.48,0,0,0,.43-.2l.3-.2a.42.42,0,0,1,.22-.09.35.35,0,0,1,.3.21l.63,1a3.94,3.94,0,0,1-1.33.8,4.45,4.45,0,0,1-1.61.29ZM31.12,96.39a5.25,5.25,0,0,1,2,.37,4.46,4.46,0,0,1,1.6,1,4.84,4.84,0,0,1,1.05,1.71,6.68,6.68,0,0,1,.38,2.32,1.41,1.41,0,0,1-.11.67.46.46,0,0,1-.41.17H27.55a6.61,6.61,0,0,0,.32,2,4,4,0,0,0,.79,1.42,3.12,3.12,0,0,0,1.2.86,4.25,4.25,0,0,0,1.56.28,4.45,4.45,0,0,0,1.39-.19,6.93,6.93,0,0,0,1-.4c.28-.15.51-.28.7-.4a.9.9,0,0,1,.48-.19.47.47,0,0,1,.41.2l.6.79a4.26,4.26,0,0,1-1,.83,6.47,6.47,0,0,1-1.18.58,9.18,9.18,0,0,1-1.3.34,8.62,8.62,0,0,1-1.33.11,6.26,6.26,0,0,1-2.32-.43,5.06,5.06,0,0,1-1.84-1.25,5.93,5.93,0,0,1-1.21-2,8.52,8.52,0,0,1-.43-2.79,7.12,7.12,0,0,1,.39-2.38A5.77,5.77,0,0,1,27,98.13a5.28,5.28,0,0,1,1.79-1.28,6,6,0,0,1,2.38-.46ZM31.17,98a3.26,3.26,0,0,0-2.44.9,4.14,4.14,0,0,0-1.1,2.46h6.61A4.15,4.15,0,0,0,34,100a2.88,2.88,0,0,0-.6-1.07,2.57,2.57,0,0,0-1-.69,3.17,3.17,0,0,0-1.3-.25Zm22.17-1.39v16.3H51.21V107a6.12,6.12,0,0,1-1.75,1.43,4.56,4.56,0,0,1-2.24.54,4.36,4.36,0,0,1-1.89-.41,3.83,3.83,0,0,1-1.45-1.18,5.65,5.65,0,0,1-.93-1.94,10.31,10.31,0,0,1-.32-2.68,8.39,8.39,0,0,1,.36-2.5,6,6,0,0,1,1-2,4.73,4.73,0,0,1,3.85-1.82,4.35,4.35,0,0,1,2,.42A4.6,4.6,0,0,1,51.35,98l.14-1a.56.56,0,0,1,.58-.45Zm-5.41,10.61a3.51,3.51,0,0,0,1.83-.47,5.19,5.19,0,0,0,1.45-1.34V99.59a3.24,3.24,0,0,0-2.85-1.54,3.07,3.07,0,0,0-2.61,1.21,5.64,5.64,0,0,0-.92,3.45,8.59,8.59,0,0,0,.21,2,4,4,0,0,0,.6,1.39,2.4,2.4,0,0,0,1,.8,3.24,3.24,0,0,0,1.32.25ZM58.78,96.58v7.76a3.2,3.2,0,0,0,.64,2.14,2.34,2.34,0,0,0,1.92.76,3.63,3.63,0,0,0,1.76-.45,5.28,5.28,0,0,0,1.52-1.23v-9h2.14v12.17H65.49a.55.55,0,0,1-.58-.44L64.74,107A6.79,6.79,0,0,1,63,108.41a4.74,4.74,0,0,1-2.26.53,4.34,4.34,0,0,1-1.75-.33,3.44,3.44,0,0,1-1.28-.93,4,4,0,0,1-.78-1.45,6.59,6.59,0,0,1-.26-1.89V96.58Zm16.31-.19a5.25,5.25,0,0,1,2,.37,4.46,4.46,0,0,1,1.6,1,4.84,4.84,0,0,1,1,1.71,6.68,6.68,0,0,1,.38,2.32,1.41,1.41,0,0,1-.11.67.46.46,0,0,1-.41.17H71.52a6.61,6.61,0,0,0,.32,2,4,4,0,0,0,.79,1.42,3.12,3.12,0,0,0,1.2.86,4.25,4.25,0,0,0,1.56.28,4.45,4.45,0,0,0,1.39-.19,6.93,6.93,0,0,0,1-.4c.28-.15.51-.28.7-.4a.9.9,0,0,1,.48-.19.47.47,0,0,1,.41.2l.6.79a4.26,4.26,0,0,1-1,.83,6.47,6.47,0,0,1-1.18.58,9.18,9.18,0,0,1-1.3.34,8.62,8.62,0,0,1-1.33.11,6.26,6.26,0,0,1-2.32-.43,5.06,5.06,0,0,1-1.84-1.25,5.93,5.93,0,0,1-1.21-2,8.52,8.52,0,0,1-.43-2.79A7.12,7.12,0,0,1,69.8,100a5.77,5.77,0,0,1,1.12-1.91,5.28,5.28,0,0,1,1.79-1.28,6,6,0,0,1,2.38-.46Zm0,1.58a3.26,3.26,0,0,0-2.44.9,4.14,4.14,0,0,0-1.1,2.46h6.61A4.15,4.15,0,0,0,78,100a2.88,2.88,0,0,0-.6-1.07,2.57,2.57,0,0,0-1-.69,3.17,3.17,0,0,0-1.3-.25Zm16.27,10.78a.55.55,0,0,1-.58-.44l-.19-1.48a6.4,6.4,0,0,1-1.78,1.52,4.59,4.59,0,0,1-2.3.57,4.37,4.37,0,0,1-1.9-.41,3.9,3.9,0,0,1-1.45-1.18,5.55,5.55,0,0,1-.92-1.94,9.88,9.88,0,0,1-.33-2.68,8.46,8.46,0,0,1,.36-2.51,6.18,6.18,0,0,1,1-2,4.73,4.73,0,0,1,3.86-1.82,4.31,4.31,0,0,1,1.91.38,4.37,4.37,0,0,1,1.41,1.06V91.06h2.14v17.69Zm-4.14-1.56a3.45,3.45,0,0,0,1.83-.48,5.24,5.24,0,0,0,1.44-1.36V99.47a3.49,3.49,0,0,0-1.28-1.12A3.78,3.78,0,0,0,87.7,98a3.08,3.08,0,0,0-2.62,1.22,5.72,5.72,0,0,0-.91,3.46,8.65,8.65,0,0,0,.21,2,3.77,3.77,0,0,0,.6,1.39,2.34,2.34,0,0,0,1,.8,3.21,3.21,0,0,0,1.32.25Zm17.93,1.56h-1a1.08,1.08,0,0,1-.51-.1.54.54,0,0,1-.25-.41l-.24-1.13q-.48.44-.93.78a6,6,0,0,1-1,.58,5.46,5.46,0,0,1-1.08.35,6.13,6.13,0,0,1-1.26.12,4.36,4.36,0,0,1-1.33-.2,3,3,0,0,1-1.07-.59,2.8,2.8,0,0,1-.73-1,3.56,3.56,0,0,1-.27-1.44,2.6,2.6,0,0,1,.4-1.39,3.47,3.47,0,0,1,1.28-1.2,8.31,8.31,0,0,1,2.3-.84,15.81,15.81,0,0,1,3.5-.34v-1a3.24,3.24,0,0,0-.61-2.15,2.18,2.18,0,0,0-1.79-.74,3.9,3.9,0,0,0-1.32.2,5.26,5.26,0,0,0-.92.44l-.67.45a1,1,0,0,1-.56.2.68.68,0,0,1-.38-.11,1,1,0,0,1-.26-.28l-.38-.68a6.86,6.86,0,0,1,2.17-1.46,6.74,6.74,0,0,1,2.58-.48,4.67,4.67,0,0,1,1.81.33,3.77,3.77,0,0,1,1.33.94,3.89,3.89,0,0,1,.82,1.45,6.23,6.23,0,0,1,.28,1.88v7.78Zm-5.55-1.32a4.65,4.65,0,0,0,1-.11,4.27,4.27,0,0,0,.89-.32,4.82,4.82,0,0,0,.79-.51,6.49,6.49,0,0,0,.74-.67V103.3a14.76,14.76,0,0,0-2.51.19,6.38,6.38,0,0,0-1.68.49,2.24,2.24,0,0,0-.94.71,1.48,1.48,0,0,0-.3.91,1.92,1.92,0,0,0,.16.83,1.51,1.51,0,0,0,.42.57,1.61,1.61,0,0,0,.62.33,3.2,3.2,0,0,0,.78.1ZM17.35,84.54V72.37h1.28a.54.54,0,0,1,.57.45l.16,1.25a6,6,0,0,1,1.51-1.36,3.54,3.54,0,0,1,1.93-.53,2.86,2.86,0,0,1,2,.69,3.84,3.84,0,0,1,1.1,1.85,3.83,3.83,0,0,1,1.59-1.94,3.87,3.87,0,0,1,1.1-.45,4.71,4.71,0,0,1,1.18-.15,4.63,4.63,0,0,1,1.72.31,3.36,3.36,0,0,1,1.27.89,3.9,3.9,0,0,1,.79,1.45,6.23,6.23,0,0,1,.28,2v7.75H31.69V76.79a3.24,3.24,0,0,0-.62-2.16,2.22,2.22,0,0,0-1.81-.74,2.77,2.77,0,0,0-1,.18,2.5,2.5,0,0,0-.84.55,2.52,2.52,0,0,0-.57.91,3.47,3.47,0,0,0-.21,1.26v7.75H24.51V76.79a3.42,3.42,0,0,0-.59-2.18,2.09,2.09,0,0,0-1.72-.72,2.75,2.75,0,0,0-1.47.42,5.18,5.18,0,0,0-1.24,1.16v9.07ZM39.43,72.37V84.54H37.3V72.37Zm.48-3.81a1.4,1.4,0,0,1-.12.58,1.61,1.61,0,0,1-.34.48A1.58,1.58,0,0,1,39,70a1.48,1.48,0,0,1-.59.12A1.4,1.4,0,0,1,37.8,70a1.6,1.6,0,0,1-.81-.81,1.4,1.4,0,0,1-.12-.58A1.53,1.53,0,0,1,37,68a1.51,1.51,0,0,1,.33-.49,1.58,1.58,0,0,1,.48-.33,1.4,1.4,0,0,1,.58-.12,1.48,1.48,0,0,1,.59.12,1.58,1.58,0,0,1,.48.33,1.49,1.49,0,0,1,.46,1.09Zm3.29,16V72.37h1.23a.67.67,0,0,1,.48.14,1.09,1.09,0,0,1,.18.49l.14,2a5.85,5.85,0,0,1,1.54-2.1,3.32,3.32,0,0,1,2.16-.75,3.66,3.66,0,0,1,.91.11,3.16,3.16,0,0,1,.75.33l-.27,1.6a.36.36,0,0,1-.37.3,1.74,1.74,0,0,1-.52-.12,3.49,3.49,0,0,0-1-.11,2.66,2.66,0,0,0-1.87.68,5,5,0,0,0-1.25,2v7.63Zm18.15,0h-1a1.23,1.23,0,0,1-.51-.09.59.59,0,0,1-.25-.42L59.4,82.9q-.48.43-.93.78a6,6,0,0,1-1,.58,5.25,5.25,0,0,1-1.08.35,6.06,6.06,0,0,1-1.26.12,4.12,4.12,0,0,1-1.33-.2,3,3,0,0,1-1.07-.59,2.8,2.8,0,0,1-.73-1,3.49,3.49,0,0,1-.27-1.44,2.63,2.63,0,0,1,.4-1.39,3.38,3.38,0,0,1,1.28-1.19,8.1,8.1,0,0,1,2.3-.85,15.87,15.87,0,0,1,3.5-.33v-1a3.24,3.24,0,0,0-.61-2.15,2.18,2.18,0,0,0-1.79-.73,3.92,3.92,0,0,0-1.32.19,4.64,4.64,0,0,0-.92.45c-.26.16-.48.31-.67.44a1,1,0,0,1-.56.2.68.68,0,0,1-.38-.11,1,1,0,0,1-.26-.28l-.38-.67a7,7,0,0,1,2.17-1.47,6.74,6.74,0,0,1,2.58-.48,4.64,4.64,0,0,1,1.81.33,3.77,3.77,0,0,1,1.33.94,3.86,3.86,0,0,1,.82,1.46,6.12,6.12,0,0,1,.28,1.87v7.78ZM55.8,83.22a4.12,4.12,0,0,0,1-.11,4.27,4.27,0,0,0,.89-.32,4.38,4.38,0,0,0,.79-.5,6.61,6.61,0,0,0,.74-.68V79.09a14.76,14.76,0,0,0-2.51.19,7.25,7.25,0,0,0-1.68.49,2.32,2.32,0,0,0-.94.71,1.48,1.48,0,0,0-.3.91,1.92,1.92,0,0,0,.16.83,1.44,1.44,0,0,0,.42.57,1.68,1.68,0,0,0,.62.33,2.78,2.78,0,0,0,.78.1Zm21.71-8.69a1,1,0,0,1-.19.21.45.45,0,0,1-.28.07.71.71,0,0,1-.39-.15c-.14-.1-.32-.21-.53-.33a4.81,4.81,0,0,0-.78-.33,3.75,3.75,0,0,0-1.14-.15,3.7,3.7,0,0,0-1.57.32,3,3,0,0,0-1.15.92,4.15,4.15,0,0,0-.69,1.45,7,7,0,0,0-.24,1.91,7.34,7.34,0,0,0,.25,2,4.41,4.41,0,0,0,.71,1.44,3.14,3.14,0,0,0,1.11.88,3.37,3.37,0,0,0,1.47.31,3.66,3.66,0,0,0,1.29-.19,4.11,4.11,0,0,0,.84-.41c.22-.15.4-.29.55-.41a.62.62,0,0,1,.43-.19.46.46,0,0,1,.41.21l.6.78a4.73,4.73,0,0,1-2,1.43,7.06,7.06,0,0,1-2.51.45,5.35,5.35,0,0,1-2.12-.42,4.89,4.89,0,0,1-1.7-1.22,5.87,5.87,0,0,1-1.13-2,8.77,8.77,0,0,1,0-5.17,5.76,5.76,0,0,1,1.11-2,5,5,0,0,1,1.79-1.3,6.08,6.08,0,0,1,2.45-.47,5.64,5.64,0,0,1,2.25.42,5.27,5.27,0,0,1,1.75,1.17l-.57.76Zm7.84-2.34a6.15,6.15,0,0,1,2.4.45,4.92,4.92,0,0,1,1.83,1.26,5.57,5.57,0,0,1,1.15,2,8.59,8.59,0,0,1,0,5.18,5.66,5.66,0,0,1-1.15,2,5,5,0,0,1-1.83,1.25,6.79,6.79,0,0,1-4.81,0A5.19,5.19,0,0,1,81.11,83a5.68,5.68,0,0,1-1.16-2,8.39,8.39,0,0,1,0-5.18,5.59,5.59,0,0,1,1.16-2,5.08,5.08,0,0,1,1.83-1.26,6.2,6.2,0,0,1,2.41-.45Zm0,10.85A3.09,3.09,0,0,0,88,81.83a5.51,5.51,0,0,0,.89-3.37A5.62,5.62,0,0,0,88,75.07a3.12,3.12,0,0,0-2.68-1.21,3.89,3.89,0,0,0-1.59.31,3,3,0,0,0-1.12.9A4.13,4.13,0,0,0,82,76.52a8.66,8.66,0,0,0,0,3.88,3.87,3.87,0,0,0,.67,1.43,3,3,0,0,0,1.12.9,3.73,3.73,0,0,0,1.59.31Zm8.42,1.5V72.37H95a.55.55,0,0,1,.58.45l.15,1.25a6.21,6.21,0,0,1,1.51-1.36,3.57,3.57,0,0,1,1.94-.53,2.88,2.88,0,0,1,2,.69,3.84,3.84,0,0,1,1.1,1.85,3.8,3.8,0,0,1,.66-1.15,4.07,4.07,0,0,1,.93-.79,3.75,3.75,0,0,1,1.1-.45,4.71,4.71,0,0,1,1.18-.15,4.57,4.57,0,0,1,1.71.31,3.4,3.4,0,0,1,1.28.89,4,4,0,0,1,.79,1.45,6.23,6.23,0,0,1,.28,2v7.75h-2.14V76.79a3.29,3.29,0,0,0-.62-2.16,2.22,2.22,0,0,0-1.81-.74,2.73,2.73,0,0,0-1,.18,2.5,2.5,0,0,0-.84.55,2.52,2.52,0,0,0-.57.91,3.47,3.47,0,0,0-.21,1.26v7.75h-2.14V76.79a3.42,3.42,0,0,0-.58-2.18,2.11,2.11,0,0,0-1.72-.72,2.73,2.73,0,0,0-1.47.42,5,5,0,0,0-1.24,1.16v9.07ZM118.4,72.19a6.15,6.15,0,0,1,2.4.45,4.92,4.92,0,0,1,1.83,1.26,5.57,5.57,0,0,1,1.15,2,8.59,8.59,0,0,1,0,5.18,5.66,5.66,0,0,1-1.15,2,5,5,0,0,1-1.83,1.25,6.79,6.79,0,0,1-4.81,0A5.1,5.1,0,0,1,114.16,83a5.68,5.68,0,0,1-1.16-2,8.39,8.39,0,0,1,0-5.18,5.59,5.59,0,0,1,1.16-2A5,5,0,0,1,116,72.64a6.2,6.2,0,0,1,2.41-.45Zm0,10.85a3.09,3.09,0,0,0,2.68-1.21,5.51,5.51,0,0,0,.89-3.37,5.62,5.62,0,0,0-.89-3.39,3.12,3.12,0,0,0-2.68-1.21,3.89,3.89,0,0,0-1.59.31,3,3,0,0,0-1.12.9,4.13,4.13,0,0,0-.67,1.45,8.66,8.66,0,0,0,0,3.88,3.87,3.87,0,0,0,.67,1.43,3,3,0,0,0,1.12.9,3.73,3.73,0,0,0,1.59.31ZM17.59,60.33v-9.9l-.81-.17a1.58,1.58,0,0,1-.68-.3.71.71,0,0,1-.26-.6V47.9h1.75v-.71a5.18,5.18,0,0,1,.35-1.93,4.08,4.08,0,0,1,1-1.48,4.47,4.47,0,0,1,1.57-.94,5.93,5.93,0,0,1,2.1-.34,5.53,5.53,0,0,1,.84.06,5.31,5.31,0,0,1,.81.2l-.07,1.79a.57.57,0,0,1-.1.31.83.83,0,0,1-.22.2,1,1,0,0,1-.3.12,1.66,1.66,0,0,1-.32,0,3.3,3.3,0,0,0-.87.1,1.28,1.28,0,0,0-.64.34,1.45,1.45,0,0,0-.39.65,3.15,3.15,0,0,0-.14,1v.59h2.93v2.54H21.31v9.89ZM31.27,47.68a7.06,7.06,0,0,1,2.58.45,5.52,5.52,0,0,1,2,1.27,5.67,5.67,0,0,1,1.3,2,7.24,7.24,0,0,1,.46,2.66,7.37,7.37,0,0,1-.46,2.69,5.76,5.76,0,0,1-1.3,2,5.68,5.68,0,0,1-2,1.28,7.06,7.06,0,0,1-2.58.45,7.15,7.15,0,0,1-2.59-.45,6,6,0,0,1-2-1.28,5.78,5.78,0,0,1-1.31-2,7.59,7.59,0,0,1-.46-2.69,7.46,7.46,0,0,1,.46-2.66,5.7,5.7,0,0,1,1.31-2,5.78,5.78,0,0,1,2-1.27,7.15,7.15,0,0,1,2.59-.45Zm0,10.08a2.14,2.14,0,0,0,1.9-.9,5.09,5.09,0,0,0,.6-2.76,5,5,0,0,0-.6-2.75,2.14,2.14,0,0,0-1.9-.9,2.17,2.17,0,0,0-1.93.9,4.91,4.91,0,0,0-.61,2.75,5,5,0,0,0,.61,2.76,2.17,2.17,0,0,0,1.93.9ZM44,60.52a4.27,4.27,0,0,1-1.57-.26,3.06,3.06,0,0,1-1.14-.73,3.17,3.17,0,0,1-.7-1.15,4.37,4.37,0,0,1-.24-1.5V50.44H39.31a.72.72,0,0,1-.49-.18.7.7,0,0,1-.2-.54V48.29l2-.39.73-3.06a.75.75,0,0,1,.82-.58h1.94V47.9h3v2.54h-3v6.18a1.18,1.18,0,0,0,.21.72.73.73,0,0,0,.61.28,1.59,1.59,0,0,0,.34,0,1.33,1.33,0,0,0,.24-.1l.19-.1a.65.65,0,0,1,.21,0,.46.46,0,0,1,.27.08,1.1,1.1,0,0,1,.21.25l1.13,1.77a5.13,5.13,0,0,1-1.62.81,6.44,6.44,0,0,1-1.86.27ZM54.79,47.68a7.06,7.06,0,0,1,2.58.45,5.52,5.52,0,0,1,2,1.27,5.67,5.67,0,0,1,1.3,2,7.24,7.24,0,0,1,.46,2.66,7.37,7.37,0,0,1-.46,2.69,5.76,5.76,0,0,1-1.3,2,5.68,5.68,0,0,1-2,1.28,7.06,7.06,0,0,1-2.58.45,7.15,7.15,0,0,1-2.59-.45,6,6,0,0,1-2-1.28,5.78,5.78,0,0,1-1.31-2,7.59,7.59,0,0,1-.46-2.69,7.46,7.46,0,0,1,.46-2.66,5.7,5.7,0,0,1,1.31-2,5.78,5.78,0,0,1,2-1.27,7.15,7.15,0,0,1,2.59-.45Zm0,10.08a2.14,2.14,0,0,0,1.9-.9,5.09,5.09,0,0,0,.6-2.76,5,5,0,0,0-.6-2.75,2.14,2.14,0,0,0-1.9-.9,2.17,2.17,0,0,0-1.93.9,4.91,4.91,0,0,0-.61,2.75,5,5,0,0,0,.61,2.76,2.17,2.17,0,0,0,1.93.9Zm16.89,6.17a1.13,1.13,0,0,1-.27.39.76.76,0,0,1-.5.14H69.33l2.22-4.75-5-11.53h1.85a.59.59,0,0,1,.43.14.93.93,0,0,1,.23.3l3.25,7.76c.07.18.14.36.19.53s.1.37.14.55l.16-.55c.06-.17.12-.36.2-.54l3.15-7.75a.76.76,0,0,1,.25-.32.66.66,0,0,1,.38-.12h1.7L71.68,63.93ZM33.53,23.67v7.9A2.16,2.16,0,0,0,34,33a1.51,1.51,0,0,0,1.24.51,2.75,2.75,0,0,0,1.14-.25,4.47,4.47,0,0,0,1-.71V23.67h3.72V36.12h-2.3a.88.88,0,0,1-.92-.61l-.22-.71a6.16,6.16,0,0,1-.75.62,4.76,4.76,0,0,1-.82.48,5.44,5.44,0,0,1-.94.3,4.84,4.84,0,0,1-1.11.12,4.25,4.25,0,0,1-1.8-.36,3.74,3.74,0,0,1-1.33-1,4.26,4.26,0,0,1-.81-1.5,6.06,6.06,0,0,1-.28-1.9v-7.9ZM44,36.12v-18h3.72V25a5.64,5.64,0,0,1,1.58-1.11,4.93,4.93,0,0,1,2.07-.41,3.91,3.91,0,0,1,1.8.42,4.07,4.07,0,0,1,1.43,1.23,6.23,6.23,0,0,1,.94,2,9.46,9.46,0,0,1,.34,2.67,8.29,8.29,0,0,1-.39,2.6,6.59,6.59,0,0,1-1.09,2.07,5,5,0,0,1-1.68,1.36,4.75,4.75,0,0,1-2.17.5,4.2,4.2,0,0,1-1-.11,3.24,3.24,0,0,1-.81-.3,3.51,3.51,0,0,1-.67-.47,6.67,6.67,0,0,1-.6-.59l-.13.61A.78.78,0,0,1,47,36a1.05,1.05,0,0,1-.59.14ZM50,26.28a2.75,2.75,0,0,0-.73.09,2.22,2.22,0,0,0-.62.24,2.36,2.36,0,0,0-.52.39,5.4,5.4,0,0,0-.48.55v5.2a2.37,2.37,0,0,0,.91.65,3,3,0,0,0,1,.18,2.24,2.24,0,0,0,.95-.2,2.05,2.05,0,0,0,.76-.66,3.52,3.52,0,0,0,.49-1.17A7.3,7.3,0,0,0,52,29.8a8.57,8.57,0,0,0-.14-1.66,3.54,3.54,0,0,0-.4-1.08,1.54,1.54,0,0,0-.62-.6,1.79,1.79,0,0,0-.81-.18Zm13.18-2.8a6.31,6.31,0,0,1,2.26.38A5,5,0,0,1,67.25,25a5.07,5.07,0,0,1,1.15,1.79,6.52,6.52,0,0,1,.41,2.41,6.26,6.26,0,0,1,0,.68,1,1,0,0,1-.14.42.49.49,0,0,1-.25.22,1.25,1.25,0,0,1-.42.06H60.8a3.54,3.54,0,0,0,.94,2.27,2.82,2.82,0,0,0,2,.7,3.66,3.66,0,0,0,1.12-.15,4.93,4.93,0,0,0,.83-.36l.68-.34a1.29,1.29,0,0,1,.64-.16.77.77,0,0,1,.67.33l1.08,1.36a5.55,5.55,0,0,1-1.24,1.06,6.3,6.3,0,0,1-1.37.64,7.85,7.85,0,0,1-1.4.32,10.64,10.64,0,0,1-1.34.09,7,7,0,0,1-2.45-.43,5.69,5.69,0,0,1-2-1.27,6.15,6.15,0,0,1-1.36-2.09,7.84,7.84,0,0,1-.5-2.91,6.63,6.63,0,0,1,.43-2.36,5.86,5.86,0,0,1,1.23-2A5.78,5.78,0,0,1,60.66,24a6.35,6.35,0,0,1,2.56-.49ZM63.29,26a2.23,2.23,0,0,0-1.67.61,3.17,3.17,0,0,0-.79,1.75h4.65a3.15,3.15,0,0,0-.12-.87,2,2,0,0,0-.37-.75,1.81,1.81,0,0,0-.68-.53,2.26,2.26,0,0,0-1-.21ZM80,36.32a4.49,4.49,0,0,1-1.57-.26,3.06,3.06,0,0,1-1.84-1.88,4.45,4.45,0,0,1-.24-1.5V26.24H75.24a.67.67,0,0,1-.69-.72V24.08l2-.38.73-3.06a.74.74,0,0,1,.82-.58H80v3.63h3v2.55H80v6.18a1.17,1.17,0,0,0,.21.71.7.7,0,0,0,.61.28,1.13,1.13,0,0,0,.34,0,1.33,1.33,0,0,0,.24-.1l.19-.09a.46.46,0,0,1,.21,0,.45.45,0,0,1,.27.07,1.1,1.1,0,0,1,.21.25l1.13,1.78a5.11,5.11,0,0,1-1.62.8,6.45,6.45,0,0,1-1.86.28Zm8.71-12.65v7.9A2.16,2.16,0,0,0,89.08,33a1.51,1.51,0,0,0,1.24.51,2.75,2.75,0,0,0,1.14-.25,4.47,4.47,0,0,0,1-.71V23.67h3.72V36.12h-2.3a.88.88,0,0,1-.92-.61l-.22-.71a6.16,6.16,0,0,1-.75.62,4.76,4.76,0,0,1-.82.48,5.44,5.44,0,0,1-.94.3,4.84,4.84,0,0,1-1.11.12,4.25,4.25,0,0,1-1.8-.36A3.74,3.74,0,0,1,86,35a4.26,4.26,0,0,1-.81-1.5,6.06,6.06,0,0,1-.28-1.9v-7.9Z"/></g></g></svg>